<?xml version="1.0" encoding="utf-8"?>
<!-- Generator: Adobe Illustrator 28.0.0, SVG Export Plug-In . SVG Version: 6.00 Build 0)  -->
<svg version="1.1" xmlns="http://www.w3.org/2000/svg" xmlns:xlink="http://www.w3.org/1999/xlink" x="0px" y="0px"
	 viewBox="0 0 1920 1080" style="enable-background:new 0 0 1920 1080;" xml:space="preserve">
<style type="text/css">
	.st0{display:none;clip-path:url(#SVGID_00000045593329315125805760000015118055662181426577_);}
	.st1{display:inline;fill:#84EADC;}
	.st2{display:inline;opacity:0.49;fill:#84EADC;}
	.st3{display:inline;}
	.st4{fill:#84EADC;}
	.st5{fill:#FFFFFF;}
	.st6{display:inline;fill:#FE6A84;}
	.st7{font-family:'Lato-Bold';}
	.st8{font-size:30px;}
	.st9{font-family:'Lato-Regular';}
	.st10{font-family:'Lato-Black';}
	.st11{font-size:32.5147px;}
	.st12{display:inline;fill:#D24D49;}
	.st13{fill:#E84D49;}
	.st14{fill:#F18C89;}
	.st15{fill:#F2A61E;}
	.st16{fill:#F2C418;}
	.st17{display:inline;fill:#669890;}
	.st18{display:inline;fill:#FDE439;}
	.st19{fill:#724D39;}
	.st20{fill:#FDE439;}
	.st21{fill:#F8F5CA;}
	.st22{fill:#FAD13D;}
	.st23{display:inline;fill:#B8D2DB;}
	.st24{fill:#E94E56;}
	.st25{display:inline;fill:#FABF14;}
	.st26{display:inline;opacity:0.31;fill:#FFFFFF;}
	.st27{display:inline;opacity:0.32;fill:#FFFFFF;}
	.st28{display:inline;fill:#F6A71D;}
	.st29{display:inline;fill:#261B1A;}
	.st30{fill:#FE6A84;}
	.st31{fill:#F1C718;}
	.st32{opacity:0.25;fill:#FFFFFF;}
	.st33{display:inline;fill:#EC94BA;}
	.st34{fill:#CF6CA0;}
	.st35{fill:#FFD6D8;}
	.st36{display:inline;fill:#EDCCBA;}
	.st37{display:inline;opacity:0.34;fill:#FFFFFF;}
	.st38{display:inline;fill:#FFFFFF;}
	.st39{display:inline;fill:#CF6CA0;}
	.st40{display:inline;opacity:0.43;}
	.st41{clip-path:url(#SVGID_00000045593329315125805760000015118055662181426577_);}
	.st42{fill:#FFD675;}
	.st43{display:none;}
	.st44{font-family:'Lobster-Regular';}
	.st45{font-size:215.3516px;}
	.st46{font-size:59.1444px;}
	.st47{letter-spacing:11;}
	.st48{display:inline;fill:none;}
	.st49{font-family:'Lato-Light';}
	.st50{font-size:26.2762px;}
</style>
<g id="OBJECTS">
	<defs>
		<rect id="SVGID_1_" width="1920" height="1080"/>
	</defs>
	<clipPath id="SVGID_00000075855799942512769050000010978059594236269440_">
		<use xlink:href="#SVGID_1_"  style="overflow:visible;"/>
	</clipPath>
	<g style="display:none;clip-path:url(#SVGID_00000075855799942512769050000010978059594236269440_);">
		<path class="st1" d="M-533.27,254.53c56.65,95,175.37,129.03,267.93,78.08c40.91,58.06,118.33,76.8,178.05,41.19
			c48.8-29.11,71.21-85.87,60.56-140.36c42.01,28.86,97.4,33.17,142.64,6.19c17.73-10.57,31.85-24.87,42.32-41.31
			c39.48,20,87.09,20.42,126.84-3.3c62.78-37.44,82.14-120.67,43.23-185.92c-5.29-8.87-11.44-16.87-18.18-24.12
			c12.92-1.98,25.64-6.3,37.48-13.36c50.9-30.36,66.6-97.85,35.05-150.75c-21.94-36.8-60.95-56.78-99.81-55.35
			c18.39-54.63,13.27-117.7-19.27-172.28C205.73-503.75,83.19-537.26-10.14-481.6c-18.3,10.92-34.09,24.48-47.26,39.93
			c-32.49-49.74-97.07-66.39-146.64-36.83c-29.27,17.46-46.82,47.2-50.52,79.38c-42.13-29.49-98.04-34.07-143.65-6.87
			c-45.78,27.3-68.33,78.95-62.18,130.22c-32.1-1.44-64.67,6.02-93.98,23.49c-82.3,49.08-107.67,158.19-56.67,243.71
			c17.31,29.02,41.2,51.58,68.41,66.82C-571.81,117.74-570.72,191.73-533.27,254.53z"/>
	</g>
	<g style="display:none;clip-path:url(#SVGID_00000075855799942512769050000010978059594236269440_);">
		<path class="st2" d="M928.91,1160.98c11.89,159.83,143.72,280.82,296.68,274.73c15.41,101.75,103.62,176.18,204.08,168.7
			c82.1-6.11,147.91-65.16,169.4-142.68c35.76,64.62,104.75,106.08,180.88,100.42c29.82-2.23,57.39-11.62,81.61-26.13
			c38.2,51.5,99.64,82.85,166.52,77.88c105.62-7.86,184.62-103.21,176.45-212.97c-1.11-14.92-3.9-29.28-7.94-43.03
			c18.02,5.81,37.31,8.45,57.23,6.96c85.64-6.37,149.7-83.68,143.08-172.68c-4.61-61.9-42.22-113.07-93.5-136.39
			c59.22-58.89,93.44-143.93,86.6-235.77c-12.14-163.15-149.25-285.95-306.26-274.27c-30.8,2.29-60.04,9.65-87.12,21.14
			c-9.9-85.5-82.81-148.92-166.2-142.71c-49.24,3.66-91.25,30.85-116.89,70.15c-35.5-65.5-105-107.65-181.72-101.94
			c-77.02,5.73-139.7,58.07-164.93,128.5c-40.67-22.66-87.71-34.09-137.01-30.42c-138.45,10.3-242.01,135.29-231.3,279.16
			c3.64,48.82,19.99,93.52,45.38,130.91C967.57,958.72,921.06,1055.33,928.91,1160.98z"/>
		<path class="st1" d="M1155.74,1114.82c8.21,110.31,99.19,193.82,204.76,189.62c10.64,70.21,71.51,121.6,140.85,116.43
			c56.67-4.22,102.08-44.98,116.92-98.48c24.68,44.6,72.3,73.21,124.83,69.3c20.58-1.53,39.61-8.01,56.32-18.03
			c26.37,35.54,68.77,57.19,114.94,53.75c72.89-5.43,127.42-71.23,121.79-146.98c-0.77-10.3-2.69-20.21-5.48-29.7
			c12.44,4.01,25.75,5.83,39.5,4.8c59.1-4.4,103.32-57.76,98.74-119.19c-3.18-42.72-29.14-78.03-64.53-94.13
			c40.87-40.65,64.49-99.35,59.77-162.73c-8.38-112.61-103.02-197.36-211.38-189.3c-21.25,1.58-41.44,6.66-60.12,14.59
			c-6.83-59.01-57.15-102.78-114.71-98.5c-33.99,2.53-62.98,21.29-80.68,48.42c-24.5-45.21-72.47-74.3-125.42-70.37
			c-53.15,3.96-96.42,40.08-113.83,88.69c-28.07-15.64-60.54-23.53-94.57-20.99c-95.55,7.11-167.03,93.37-159.64,192.67
			c2.51,33.7,13.79,64.55,31.32,90.35C1182.41,975.22,1150.31,1041.9,1155.74,1114.82z"/>
	</g>
	<g style="display:none;clip-path:url(#SVGID_00000075855799942512769050000010978059594236269440_);">
		<g class="st3">
			<g>
				<path class="st4" d="M1738.17,118.71h-432.59c-16.52,0-30.04-13.52-30.04-30.04l0,0c0-16.53,13.52-30.04,30.04-30.04h432.59
					c16.52,0,30.04,13.52,30.04,30.04l0,0C1768.21,105.19,1754.69,118.71,1738.17,118.71z"/>
			</g>
		</g>
		<g class="st3">
			<path class="st5" d="M1310.41,74.2c-5.75,0-10.4,4.66-10.4,10.4c0,2.16,0.66,4.17,1.79,5.84l-9.19,9.18
				c-0.24,0.24-0.24,0.62,0,0.85l2.48,2.48c0.24,0.24,0.62,0.24,0.85,0l9.32-9.32c1.52,0.87,3.27,1.37,5.14,1.37
				c5.75,0,10.4-4.66,10.4-10.4C1320.81,78.85,1316.15,74.2,1310.41,74.2z M1310.41,89.93c-2.95,0-5.33-2.39-5.33-5.33
				c0-2.94,2.39-5.33,5.33-5.33c2.95,0,5.33,2.39,5.33,5.33C1315.74,87.54,1313.35,89.93,1310.41,89.93z"/>
		</g>
		<text transform="matrix(1 0 0 1 151.7856 97.1055)" class="st6 st7 st8">home</text>
		<text transform="matrix(1 0 0 1 370.5869 97.1055)" class="st6 st9 st8">about us</text>
		<text transform="matrix(1 0 0 1 645.9521 97.1055)" class="st6 st9 st8">services</text>
		<text transform="matrix(1 0 0 1 899.98 97.1055)" class="st6 st9 st8">trips</text>
		<text transform="matrix(1 0 0 1 1093.2051 97.1055)" class="st6 st9 st8">contact</text>
	</g>
	<g style="display:none;clip-path:url(#SVGID_00000075855799942512769050000010978059594236269440_);">
		<text transform="matrix(1 0 0 1 151.7856 913.5605)" class="st6 st10 st11">RSVP NOW</text>
	</g>
	<g style="display:none;clip-path:url(#SVGID_00000075855799942512769050000010978059594236269440_);">
		<path class="st12" d="M1039.91,503.09c0,0,180.21,11.32,205.48,26.11c25.26,14.79,12.05,35.83,0.76,49.05
			c-11.29,13.22-10.44-4.62-10.44-4.62s20.45-14.16,7.07-29.42c-13.38-15.26-109.8-20.18-159.63-24.62
			C1033.32,515.16,1039.91,503.09,1039.91,503.09z"/>
		<path class="st12" d="M1273.27,585.06c0,0-131.92-123.3-160.01-131.53c-28.1-8.23-34.33,15.82-36.2,33.11
			c-1.21,11.14,5.31,11.27,8.82,8.88c1.93-1.32,1.71-4.45,1.71-4.45s-3.74-24.59,16.54-25.34c20.28-0.74,90.04,66,127.46,99.21
			C1269.02,598.13,1273.27,585.06,1273.27,585.06z"/>
		<g class="st3">
			<g>
				<path class="st13" d="M1142.77,547.45c0,0,5.52-3.59,12.07-1.81c6.55,1.78,9.81,11.71,9.81,11.71l8.97-11.36
					c0,0-0.64-10.52-12.48-14.24c-11.84-3.72-20.64,1.47-20.64,1.47L1142.77,547.45z"/>
				<path class="st13" d="M1029.28,505.81c0,0-9.84-5.48-14.33,2.54c-4.5,8.01,0.64,12.7,8.33,15.53
					C1030.97,526.7,1029.28,505.81,1029.28,505.81z"/>
				<path class="st13" d="M1276.08,596.35c0,0,11.04,2.18,9.29,11.2c-1.75,9.02-8.7,9.28-16.4,6.45
					C1261.28,611.18,1276.08,596.35,1276.08,596.35z"/>
				<path class="st14" d="M1088.9,518.33c0,0,15.37-15.56,36.82-5.2c21.45,10.36,27.15,36.46,6.66,68.53
					c-20.5,32.07-74.43,33.79-74.43,33.79s-33.3-19.7-39.73-71C1011.14,487.98,1073.47,467.78,1088.9,518.33z"/>
				<path class="st13" d="M1087.4,522.42c0,0,15.08-14.76,36.57-4.49c21.48,10.27,29.57,36.9,7.57,66.04
					c-23.21,30.75-73.59,31.5-73.59,31.5s-33.4-19.42-40.51-68.88C1009.61,492.14,1071.35,473.55,1087.4,522.42z"/>
				<path class="st15" d="M1082.33,533.69c0,0,20.95-16.32,38.93-7.54c17.97,8.78,13.93,41.9-13.2,60.62
					c-27.13,18.73-46.03,15.85-46.03,15.85s-27.49-21.54-30.25-56.92c-2.23-28.68,12.76-45.82,26.51-44.21
					C1074.67,503.42,1083.09,529.92,1082.33,533.69z"/>
				<path class="st14" d="M1222.73,569.92c0,0,1.96-22.35-22.22-31.22c-24.18-8.87-55.17,11.87-49.78,51.57
					c5.39,39.7,31.21,67.87,31.21,67.87s32.4,3.47,71.8-23.23c39.41-26.69,25.01-62.21,5.63-70.57
					C1240,555.99,1222.73,569.92,1222.73,569.92z"/>
				<path class="st13" d="M1221.61,572.97c0,0,1.71-21.67-22.47-30.54c-24.18-8.87-54.82,10.92-49.02,49.51
					c5.8,38.58,31.82,66.21,31.82,66.21s32.3,3.71,71.27-21.76c38.96-25.48,24.23-60.11,4.84-68.43
					C1238.66,559.64,1221.61,572.97,1221.61,572.97z"/>
				<path class="st15" d="M1215.41,585.63c0,0,26.56-24.34,44.68-7.93c16.57,15.02-4.19,45.3-31.66,57.13
					c-25.96,11.18-41.02,10.98-41.02,10.98s-15.48-18.15-23.51-49.78c-8.04-31.63,16.18-51.74,30.01-46.97
					C1207.75,553.83,1213.35,570.85,1215.41,585.63z"/>
				<path class="st16" d="M1129.7,559.45c5.09-14.27,2.25-28.08-8.43-33.3c-17.98-8.78-38.93,7.54-38.93,7.54
					c0.76-3.77-7.66-30.27-24.04-32.2c-13.75-1.61-28.74,15.53-26.51,44.21c0.13,1.73,0.37,3.4,0.62,5.06
					C1047.02,545.75,1079.09,540.25,1129.7,559.45z"/>
				<path class="st16" d="M1260.09,577.7c-18.12-16.42-44.68,7.93-44.68,7.93c-2.06-14.78-7.66-31.8-21.5-36.57
					c-12.96-4.46-35.01,12.89-31.16,41.09c15.85-2.94,48.19-3.51,95.09,21.67C1266.86,599.64,1269.48,586.22,1260.09,577.7z"/>
			</g>
		</g>
	</g>
	<g style="display:none;clip-path:url(#SVGID_00000075855799942512769050000010978059594236269440_);">
		<path class="st17" d="M1183.01,1128.45c0,0,4.1,15.5,8.48,19.66c4.38,4.15,39.02,10.96,93.22-22.07
			c53.33-32.49,43.33-51.6,41.86-57c-1.47-5.41-13.98-16.42-13.98-16.42L1183.01,1128.45z"/>
		<path class="st18" d="M1207.66,794.23c-0.96-3.45-7.48-7.47-10.93-6.51c-1.2,0.33-16.12,7.44-16.91,8.29
			c-12,7.38-40.56,20.04-99.93,48.59c-80.68,38.79-83.85,51.14-83.85,51.14c-1.88,3.05,8.93,16.33,11.98,18.21
			c2,1.24,49.28,30.34,63.12,38.37c4.63,2.69,12.07,6.78,20.69,11.51c17.32,9.52,38.87,21.36,47.99,27.54
			c9.8,6.65,22.86,11.77,31.5,15.15c3.2,1.26,7.18,2.82,8.12,3.4c3.96,2.56,9.25,2.88,13.81,0.85c0.25-0.11,0.51-0.24,0.78-0.38
			c3.6-1.87,9.1-6.52,10.88-17.84c1.35-8.55,3.55-36.64,5.68-63.82c1.46-18.62,2.84-36.2,3.56-42.04
			c1.93-15.79-0.45-54.46-1.19-63.95C1211.93,809.57,1207.84,794.85,1207.66,794.23z"/>
		<g class="st3">
			<polygon class="st19" points="1126.51,836.27 1126.38,827.09 1133.75,828.82 			"/>
			<g>
				<path class="st20" d="M1111.96,762.04c0,0,11.12-29.77,49.16-39.52c38.05-9.76,56.82-1.86,80.39,42.2
					c17.92,33.5-10.18,86.21-53.41,93.6C1143.65,865.91,1088.57,831.67,1111.96,762.04z"/>
				<path class="st21" d="M1117.73,764.58c0,0,10.11-27.09,44.73-35.96c34.62-8.88,57.49,7.57,73.15,38.39
					c15.66,30.82-3.98,72.11-43.17,84.29C1153.24,863.48,1096.44,827.94,1117.73,764.58z"/>
				<g>
					<path class="st22" d="M1136.32,766.78c0,0-9.8-5.6-3.83-14.6c5.98-8.99,20.18-12.96,24.29-8.33
						c4.12,4.64,11.7,22.4,13.28,32.15c1.57,9.75-5.79,7.27-12.33,3.76C1151.2,776.25,1136.32,766.78,1136.32,766.78z"/>
					<path class="st22" d="M1151.01,827.39c0,0-5.89,9.63-14.7,3.39c-8.81-6.24-12.36-20.55-7.6-24.53
						c4.76-3.97,22.74-11.03,32.53-12.31c9.79-1.28,7.09,6.01,3.38,12.44C1160.92,812.81,1151.01,827.39,1151.01,827.39z"/>
					<path class="st22" d="M1168.75,743.4c0,0-0.37-11.29,10.42-10.92c10.79,0.37,26.78,7.41,23.79,15.4
						c-2.17,5.81-12.93,21.71-20.4,28.17c-7.47,6.45-9.71-0.91-10.69-8.26C1170.46,757.15,1168.38,742.17,1168.75,743.4z"/>
					<path class="st22" d="M1118.63,783.34c0,0,1.42-9.45,6.04-10.41c4.62-0.96,12.85,2.08,24.48,6.5
						c11.62,4.43,15.83,6.7,14.28,8.37c-1.55,1.67-21.19,5.41-28.99,6.28C1126.65,794.95,1118.58,796.2,1118.63,783.34z"/>
					<path class="st22" d="M1216.69,784.89c0,0,11.26-0.73,11.24,10.07c-0.03,10.8-9.69,21.94-15.68,20.34
						c-5.99-1.6-22.11-12.23-28.8-19.5c-6.69-7.26,0.82-9.26,8.22-9.94C1199.06,785.19,1216.69,784.89,1216.69,784.89z"/>
					<path class="st22" d="M1198.64,824.28c0,0,5.13,10.06-4.8,14.3c-9.93,4.25-27.39,4.66-28.08-3.85
						c-0.5-6.18,2.49-25.15,6.51-34.16c4.02-9.02,9.17-3.3,13.18,2.95C1191.25,812.55,1199.5,825.23,1198.64,824.28z"/>
					<path class="st22" d="M1223.46,760.8c0,0,4.03,8.67,0.7,12.01c-3.33,3.35-11.87,5.36-24.01,8.07
						c-12.14,2.71-16.9,3.14-16.53,0.89c0.37-2.24,14.69-16.2,20.72-21.22C1210.37,755.54,1216.42,750.04,1223.46,760.8z"/>
				</g>
			</g>
			<path class="st20" d="M1137.02,808.9c-0.8-0.54-1.75-0.8-2.22-0.25c-0.96,1.13-1.63,2.4-2.09,3.8c-0.39,1.2,1.91,2.63,2.91,2.49
				c2.28-0.33,4-1.74,4.81-3.89C1140.89,809.82,1137.91,807.8,1137.02,808.9z"/>
			<path class="st20" d="M1147.78,801.59c-0.13,0.16-0.23,0.33-0.35,0.49c-0.08,0.05-0.13,0.13-0.17,0.23
				c-0.64,0.99-1.04,2.12-1.14,3.31c-0.09,1.17,2.49,3.48,3.47,2.21c0.73-0.95,1.15-2.08,1.19-3.27c0.11-0.16,0.22-0.32,0.34-0.47
				C1152.09,802.94,1148.79,800.39,1147.78,801.59z"/>
			<path class="st20" d="M1146.62,815.19c-1.32,2.85-6.47,3.75-6.15,7.42c0.14,1.67,1.83,3.35,3.53,3.42
				c0.89,0.03,1.38-0.4,1.87-1.1c0.02-0.03,0.05-0.08,0.07-0.11c0.29-0.01,0.54-0.08,0.7-0.32c1.4-2.14,2.49-4.41,3.33-6.82l0,0
				c0.03-0.1,0.08-0.18,0.12-0.28C1150.51,816.17,1147.19,813.96,1146.62,815.19z"/>
			<path class="st20" d="M1161.41,797.81c-0.28-0.12-0.54-0.23-0.82-0.35c-0.69-0.3-1.6-0.12-1.51,0.77
				c0.03,0.32,0.2,0.59,0.42,0.85c-0.04,0.09-0.08,0.17-0.12,0.26c-0.82-0.57-1.81-0.83-2.23-0.24c-0.99,1.42-1.58,3.02-1.74,4.75
				c-0.1,1.16,2.09,3.15,3.24,2.4c2.29-1.49,3.88-3.52,4.82-6.08C1163.85,799.16,1162.05,798.09,1161.41,797.81z"/>
			<path class="st20" d="M1139.03,786.45c-2.97-1.81-6.17-3.2-9.54-4.08c-1.74-0.46-6.1-1.99-6.89,0.61
				c-0.48,1.57,0.69,2.62,2.13,3.34c0.52,0.66,1.31,1.28,1.93,1.32c0.82,0.06,1.63,0.15,2.45,0.23c3.33,1.05,6.7,1.94,10.11,2.67
				c0.91,0.19,1.2-0.53,0.93-1.26c-0.02-0.04-0.06-0.08-0.08-0.12C1141.38,789,1139.68,786.84,1139.03,786.45z"/>
			<path class="st20" d="M1171.47,814.82c-0.17-0.02-0.33-0.06-0.51-0.07c-0.27,0-0.68,0.26-0.68,0.56c0,0.83,0.09,1.69,0.22,2.58
				c-1.14,4.17-2.07,8.41-2.62,12.7c-0.3,2.38,0,4.57,1.89,5.78c0.81,0.84,2.19,1.51,2.92,0.88c2.37-2.07,3.11-4.97,3.01-8.04
				c-0.02-0.61-0.7-5.07-1.27-8.23c0.09-0.42,0.18-0.84,0.25-1.27c0.1-0.67,0.09-1.32-0.01-1.91c0.08-0.28,0.13-0.56,0.22-0.84
				C1175.28,815.69,1172.27,813.7,1171.47,814.82z"/>
			<path class="st20" d="M1181.55,804.28c-0.17-1.33-3.56-3.09-3.56-1.42c-0.73-0.3-1.43-0.29-1.67,0.38
				c-0.09,0.26-0.15,0.51-0.2,0.77c-0.11,0.14-0.19,0.32-0.18,0.62c0,0.09,0.04,0.16,0.05,0.25c0,0.02-0.01,0.04-0.01,0.06
				c-0.86,5.16,0.38,10.18,3.38,14.58c0.32,0.47,0.95,0.84,1.57,1.04c0.11,0.61,0.23,1.21,0.31,1.83c0.16,1.33,3.67,3.3,3.56,1.25
				c-0.03-0.55-0.07-1.1-0.1-1.64c0.2-0.07,0.33-0.23,0.33-0.53c-0.03-2.73-0.05-5.54-0.99-8.15c-0.26-0.72-0.8-1.5-1.41-2.29
				c-0.1-0.25-0.22-0.49-0.33-0.74C1182.04,808.29,1181.8,806.29,1181.55,804.28z"/>
			<path class="st20" d="M1192.72,819.34c-0.48-0.63-1.65-1.65-2.53-1.39c-0.63,0.18-0.76,0.64-0.59,1.13
				c-0.86-0.07-1.64,0.25-1.92,1.26c-0.46,1.68,0.81,3.6,1.66,4.94c0.86,1.34,5.79,7.86,7.92,5.35c1-1.18-0.51-4.04-0.99-5.22
				C1195.39,823.23,1194.16,821.21,1192.72,819.34z M1191.39,822.69c0.33,0.42,0.6,0.88,0.81,1.37c0.26,0.57,0.41,1.16,0.52,1.76
				c-0.03-0.05-0.08-0.12-0.11-0.16c-0.69-0.99-1.24-1.96-1.41-3.15C1190.63,821.83,1190.7,821.9,1191.39,822.69z"/>
			<path class="st20" d="M1184.85,830.02c-0.21,0.06-0.39,0.15-0.56,0.26c-0.73-0.28-1.42-0.26-1.61,0.4
				c-0.57,1.95,0.03,4.03,1.32,5.56c0.59,0.69,2.18,2.05,3.1,1.11c1.49-1.54,1.65-3.72,0.86-5.64
				C1187.49,830.63,1186,829.7,1184.85,830.02z"/>
			<path class="st20" d="M1164.18,775.18c-0.87-0.98-1.72-2-2.57-3.01c-1.64-2.77-3.91-5.07-6.59-6.84
				c-0.54-0.36-1.03-0.5-1.43-0.49c-0.56-0.22-1.15-0.37-1.76-0.44c-0.29-0.09-0.56-0.11-0.81-0.09c-0.07,0-0.13-0.02-0.19-0.02
				c-0.46,0-0.8,0.46-0.67,0.9c0.93,3.1,2.48,5.88,4.77,8.19c1.5,1.52,4.63,4.49,6.99,4.29c0.66-0.06,1.03-0.31,1.22-0.68
				C1164.45,777.52,1165.53,776.72,1164.18,775.18z"/>
			<path class="st20" d="M1144.54,762.22c-2.56-3.19-5.85-5.67-9.72-7.38c-0.54-0.24-1.8-0.16-1.5,0.77
				c1.02,3.18,5.81,9.95,10.18,10.3c0.51,0.42,1,0.84,1.52,1.25c0.74,0.58,3.17,1.06,2.31-0.64c-0.28-0.54-0.58-1.06-0.89-1.57
				c0.04-0.04,0.09-0.06,0.13-0.09C1147.33,764.19,1145.86,762.62,1144.54,762.22z"/>
			<path class="st20" d="M1157.29,750.72c-1.72-2.35-4.21-5.6-7.42-5.75c-1.13-0.05-2.92,0.45-4.16,1.33
				c-0.2,0.05-0.33,0.14-0.38,0.29c-0.66,0.57-1.1,1.26-1.02,2.05c0.27,2.82,5.32,5.28,7.42,6.52c0.21,0.13,0.67,0.26,1.1,0.29
				c2.12,2.19,4.31,4.32,6.58,6.38c0.49,0.44,3.27,1.87,2.87,0.1C1161.36,757.88,1159.75,754.08,1157.29,750.72z"/>
			<path class="st20" d="M1177.11,739.08c-4.84,8.16-3.13,18.16-2.52,27.16c0.08,1.15,3,3.21,3.57,1.59
				c2.97-8.36,2.49-17.46,2.68-26.21c0.01-0.27-0.15-0.59-0.37-0.91C1180.04,739.43,1177.72,738.05,1177.11,739.08z"/>
			<path class="st20" d="M1192.69,739.13c-2.1-0.64-4.16-0.2-5.61,1.5c-0.69-0.25-1.26-0.21-1.26,0.38c0,0.76-0.03,1.52-0.04,2.28
				c-0.37,1.6-0.27,3.35-0.19,4.93c0,0.04,0.03,0.09,0.04,0.12c-0.05,1.19-0.1,2.38-0.18,3.57c-0.08,1.26,2.36,3.34,3.47,2.21
				c3.38-3.42,5.41-7.85,5.83-12.64C1194.86,740.43,1193.58,739.4,1192.69,739.13z"/>
			<path class="st20" d="M1195.76,744.67c-2.87,3.57-4.11,7.83-6.28,11.8c-0.76,1.39-1.66,2.8-2.67,4.18
				c-0.8-0.51-1.7-0.71-2.01-0.12c-1.35,2.55-2.88,4.86-4.68,7.11c-0.9,1.12,2.11,3.45,3.12,2.68c0.08-0.06,0.15-0.13,0.23-0.2
				c0,0,0,0,0.01,0c0-0.01,0.01-0.02,0.02-0.03c3.35-2.62,6.29-6.15,8.53-9.74c2.67-4.28,3.89-9.21,7.09-13.19
				C1200.06,745.99,1196.74,743.46,1195.76,744.67z"/>
			<path class="st20" d="M1210.67,758.99c-3.11,2.97-6.22,5.94-9.33,8.91c-2.64,2.53-7.27,8.76-11.35,8.39
				c-2.38-0.22,0.02,2.89,1.44,3.02c3.83,0.35,5.99-1.97,8.6-4.46c4.68-4.44,9.33-8.91,13.99-13.37
				C1215.05,760.5,1211.83,757.88,1210.67,758.99z"/>
			<path class="st20" d="M1216.93,763.58c-4.26,1.02-6.45,5.12-10.49,6.53c-1.44,0.5,1.47,3.37,2.88,2.88
				c3.78-1.32,5.92-5.41,9.83-6.35C1221.1,766.16,1218.28,763.26,1216.93,763.58z"/>
			<path class="st20" d="M1210.21,786.47c-2.98-0.17-5.49,0.86-8.37,1.48c-3.48,0.75-6.99,0.81-10.52,0.33
				c-2.35-0.32,0.04,2.83,1.44,3.02c3.01,0.41,6.02,0.5,9.03,0.09c3.26-0.44,6.56-2.09,9.86-1.9
				C1214.04,789.63,1211.64,786.55,1210.21,786.47z"/>
			<path class="st20" d="M1202.19,800.35c-5.79-2.1-8.95-8.08-15.34-9.26c-2.31-0.42,0.07,2.77,1.44,3.02
				c3.09,0.57,5.33,2.91,7.65,4.86c2.08,1.74,4.24,3.24,6.8,4.17C1205.31,804.07,1203.7,800.9,1202.19,800.35z"/>
			<path class="st20" d="M1220.04,793.25c-6.55-0.8-13.12-1.04-19.71-0.72c-1.88,0.09,0.84,3.11,2.23,3.05
				c6.34-0.31,12.63-0.08,18.92,0.69C1223.84,796.55,1221.45,793.42,1220.04,793.25z"/>
			<path class="st20" d="M1216,799.29c-2.99-1.68-6.29-2.74-9.71-3.04c-0.86-0.08-1.27,0.45-0.93,1.26
				c0.34,0.83,1.47,1.68,2.37,1.76c2.8,0.25,5.43,1.02,7.88,2.4c0.56,0.32,1.75,0.66,1.98-0.22
				C1217.82,800.58,1216.6,799.63,1216,799.29z"/>
			<path class="st20" d="M1214.75,809.81c-1.71-0.85-3.27-1.88-4.66-3.19c-0.55-0.52-1.72-1.36-2.52-0.91
				c-0.8,0.45-0.08,1.55,0.36,1.96c1.94,1.81,4.08,3.34,6.45,4.51c0.57,0.29,1.75,0.68,1.98-0.22
				C1216.57,811.12,1215.37,810.11,1214.75,809.81z"/>
			<path class="st20" d="M1140.18,778.91c-3.73-1.67-7.56-2.92-11.57-3.71c-0.88-0.18-1.24,0.51-0.93,1.26
				c0.37,0.9,1.46,1.58,2.37,1.76c3.35,0.66,6.63,1.68,9.75,3.07c0.58,0.26,1.74,0.7,1.98-0.22
				C1142,780.24,1140.8,779.19,1140.18,778.91z"/>
			<path class="st20" d="M1157.3,786.48c-4.04-1.05-8.11-1.87-12.25-2.39c-2.36-0.3,0.04,2.84,1.44,3.02
				c3.83,0.48,7.63,1.18,11.36,2.16C1160.49,789.96,1158.89,786.89,1157.3,786.48z"/>
			<path class="st20" d="M1148.96,756.29c-2.53-1.87-5.05-3.73-7.57-5.6c-0.52-0.38-1.81-1.07-2.34-0.36
				c-0.53,0.71,0.53,1.77,1.02,2.13c2.52,1.87,5.05,3.73,7.57,5.6c0.52,0.38,1.81,1.07,2.34,0.36
				C1150.5,757.71,1149.45,756.65,1148.96,756.29z"/>
			<path class="st20" d="M1163.62,765.1c-0.54-0.18-1.83-0.2-1.5,0.77c0.82,2.46,1.64,4.93,2.46,7.39c0.31,0.94,1.11,1.71,2.06,2.02
				c0.54,0.18,1.83,0.19,1.51-0.77c-0.82-2.46-1.64-4.93-2.46-7.4C1165.37,766.18,1164.57,765.41,1163.62,765.1z"/>
			<path class="st20" d="M1144.77,810.35c-4.65,3.4-9.06,7.07-13.26,11.02c-1.02,0.96,2.18,3.6,3.36,2.49
				c4.05-3.81,8.3-7.35,12.79-10.64C1149.05,812.2,1145.92,809.51,1144.77,810.35z"/>
			<path class="st20" d="M1154.14,809.32c-0.7,0.66-1.4,1.32-2.1,1.98c-1.02,0.97,2.18,3.6,3.36,2.49c0.7-0.66,1.4-1.32,2.1-1.98
				C1158.52,810.84,1155.32,808.21,1154.14,809.32z"/>
		</g>
		<path class="st23" d="M1207.66,794.23c-0.96-3.45-7.48-7.47-10.93-6.51c-1.2,0.33-16.12,7.44-16.91,8.29
			c-12,7.38-40.56,20.04-99.93,48.59c-80.68,38.79-83.85,51.14-83.85,51.14c-1.88,3.05,8.93,16.33,11.98,18.21
			c2,1.24,49.28,30.34,63.12,38.37c4.63,2.69,12.07,6.78,20.69,11.51c17.32,9.52,38.87,21.36,47.99,27.54
			c9.8,6.65,22.86,11.77,31.5,15.15c3.2,1.26,7.18,2.82,8.12,3.4c3.96,2.56,9.25,2.88,13.81,0.85c0.25-0.11,0.51-0.24,0.78-0.38
			c3.6-1.87,9.1-6.52,10.88-17.84c1.35-8.55,3.55-36.64,5.68-63.82c1.46-18.62,2.84-36.2,3.56-42.04
			c1.93-15.79-0.45-54.46-1.19-63.95C1211.93,809.57,1207.84,794.85,1207.66,794.23z"/>
		<g class="st3">
			<path class="st24" d="M1131.85,899.65c-14.07-11.56-22.64-29.74-33.36-44.21c-10.65-14.39-22.03-28.26-33.22-42.23
				c-10.12-12.63-20.29-25.46-32.08-36.59c-6.92-6.53-16.1-16.42-26.5-12.5c-0.02,0-0.02,0.02-0.04,0.02
				c-5.57,0.72-7.37,4.97-10.44,10c-6.38,10.44-13.58,19.2-23.38,26.73c-6.43,4.94,8.23,17.39,13.43,13.39
				c5.31-4.08,10.38-8.34,14.83-13.37c2.57-2.9,4.91-5.99,7.07-9.22c1.17-1.75,4.49-9.42,5.81-10.05
				c7.21-3.45,12.69,10.43,15.69,14.68c3.98,5.66,8.73,10.4,13.81,15.08c12.93,11.93,20.99,26.04,31.06,40.26
				c8.42,11.88,17.57,23.21,26.82,34.45c-0.75,1.14-0.56,2.82,1.12,4.98c0.76,2.61,3,5.51,6.45,7.11c1.05,0.48,2,0.91,2.91,1.27
				c0.14,0.11,0.28,0.22,0.42,0.33c3.04,2.87,6.22,5.56,9.62,8.1c0.67,0.5,1.32,0.9,1.95,1.26c0.7,0.49,1.37,1,2.08,1.47
				c6.2,4.13,14.08,2.3,10.47-3.7C1136.17,904.7,1134.65,901.95,1131.85,899.65z"/>
			<g>
				<path class="st5" d="M985.41,789.03c-0.91,1.04-1.84,2.07-2.8,3.07c2.11,6.97,2.76,14.57,4.05,21.84c1.28-0.98,2.54-1.98,3.78-3
					C989.16,803.44,988.15,795.94,985.41,789.03z"/>
				<path class="st5" d="M993.97,777.66c3.95,6.55,7.29,13.33,9.17,20.74c1.06-1.3,2.08-2.61,3.05-3.97
					c-2.5-7.02-6.15-13.59-10.2-19.96C995.33,775.55,994.66,776.61,993.97,777.66z"/>
				<path class="st5" d="M1020.2,782.62c0.1-5.78-0.32-11.56-1-17.33c-1.54-0.79-3.13-1.4-4.76-1.75
					c0.68,5.87,1.09,11.73,0.94,17.61C1017.1,780.84,1018.71,781.46,1020.2,782.62z"/>
				<path class="st5" d="M1034,789.36c-0.19,3.51-0.82,6.92-1.8,10.25c1.32,1.64,2.68,3.22,4.11,4.74
					c1.12-3.29,1.92-6.69,2.28-10.21c0.43-4.11,0.2-8.21-0.13-12.31c-1.62-1.66-3.27-3.3-4.95-4.89
					C1033.87,781.08,1034.22,785.22,1034,789.36z"/>
				<path class="st5" d="M1056.62,802.47c-1.37-1.69-2.76-3.36-4.16-5.03c-0.83,4.64-3.17,9.03-5.27,13.35
					c-0.46,0.96-0.93,1.91-1.39,2.87c1.4,1.38,2.75,2.79,4.05,4.22c1.3-2.67,2.6-5.34,3.87-8.02
					C1054.86,807.41,1055.9,804.97,1056.62,802.47z"/>
				<path class="st5" d="M1074.59,824.8c-1.35-1.68-2.7-3.37-4.06-5.05c-1.35,5.56-3.72,11.12-6.52,16.51
					c1.16,1.7,2.32,3.4,3.48,5.12C1070.4,836,1072.95,830.43,1074.59,824.8z"/>
				<path class="st5" d="M1089.89,844.1c-1.32-1.7-2.66-3.39-4-5.09c-1.9,6.35-4.25,12.52-7.06,18.49c1.22,1.65,2.45,3.3,3.69,4.94
					C1085.43,856.52,1087.88,850.4,1089.89,844.1z"/>
				<path class="st5" d="M1100.02,857.55c-2.21,6.12-4.59,12.18-7.07,18.2c1.28,1.6,2.57,3.19,3.87,4.78
					c2.42-5.8,4.74-11.64,6.92-17.54C1102.52,861.14,1101.28,859.32,1100.02,857.55z"/>
				<path class="st5" d="M1118.06,884.56c-1.36-1.86-2.68-3.76-3.98-5.68c-1.5,6.32-3.77,12.5-6.55,18.44
					c0.46,0.29,0.89,0.6,1.39,0.84c1.05,0.48,2,0.91,2.91,1.27c0.14,0.11,0.28,0.22,0.42,0.33c0.04,0.04,0.08,0.07,0.11,0.1
					C1114.66,894.9,1116.61,889.78,1118.06,884.56z"/>
			</g>
		</g>
		<path class="st25" d="M1033.71,903.13c0,0,2.68-5.56,9.5-11.19c6.82-5.62,28.21-10.8,60.53-28.95
			c32.32-18.15,64.49-25.29,75.17-31.52c10.68-6.23,18.76-1.38,22.5,8.5c3.74,9.89-7.61,131.76-13.8,142.62
			c-6.19,10.86-19.51,6.64-37.62-4.14c-18.11-10.78-104.09-54.52-109.72-61.35C1034.65,910.29,1033.71,903.13,1033.71,903.13z"/>
		<path class="st23" d="M1168.07,1005.64c0,0,24.52,18.65,46.29,58.71s-14.28,39.87-25.99,56.16
			c-11.71,16.29,4.17,47.71,77.36,10.85c79.9-40.23,62.18-71.76,44-77.41c-18.17-5.65-35.63,22.1-55,10.22
			c-19.36-11.88-48.19-57.9-50.07-90.05c-1.88-32.16-7.65,15.29-7.65,15.29L1168.07,1005.64z"/>
		<path class="st26" d="M1223.4,1050.47c-0.44-0.53-0.85-1.04-1.28-1.57c-0.09-0.2-0.17-0.38-0.29-0.6
			c-2.43-4.36-5.12-8.38-8.04-12.21c-0.88-1.6-1.72-3.24-2.46-4.93c-4.56-10.42-8.56-18.78-18.33-24.37
			c-0.01-0.01-0.02-0.02-0.03-0.03c-0.84-0.8-2.04-1.34-3.18-1.56c-1.1-0.38-1.79-0.3-2.16,0.08c-1.21,0.41-1.71,1.6-0.27,3.77
			c3.1,4.67,6.13,9.37,9.14,14.09c-0.28,0.65-0.14,1.6,0.71,2.92c6.35,9.85,12.71,19.7,19.06,29.54c0.37,0.58,0.95,1.13,1.61,1.62
			c3.55,9.05,5.49,18.37,12.02,26.3c0.88,1.07,6.94,5.34,7.42,1.68C1238.83,1073.57,1230.48,1059.12,1223.4,1050.47z"/>
		<path class="st27" d="M1206.42,1122.68c0,0-16.23,4.41-8.92,13.34c7.31,8.94,14.37,3.3,23.84-0.78
			C1230.8,1131.16,1216.31,1123.59,1206.42,1122.68z"/>
		<path class="st27" d="M1223.76,1104.84c0,0-15.55,13.49-6.42,13.13c9.12-0.35,14.26-5.57,17.46-15.37
			C1238,1092.81,1229.96,1097.69,1223.76,1104.84z"/>
		<path class="st18" d="M1160.73,899.29c0,0-1.07-4.65,5.76-7.13c6.83-2.48,8.15,8.11,6.08,10.86
			C1170.49,905.77,1162.76,907.24,1160.73,899.29z"/>
		<path class="st18" d="M1119.82,920.38c0,0-1.08-4.65,5.76-7.13c6.83-2.48,8.15,8.11,6.08,10.86
			C1129.58,926.86,1121.85,928.33,1119.82,920.38z"/>
		<path class="st18" d="M1132.54,958.06c0,0-1.08-4.65,5.75-7.13c6.83-2.48,8.15,8.11,6.08,10.86
			C1142.31,964.54,1134.58,966.01,1132.54,958.06z"/>
		<path class="st18" d="M1101.68,888.49c0,0-1.08-4.65,5.76-7.13c6.83-2.48,8.15,8.11,6.08,10.86
			C1111.45,894.96,1103.72,896.44,1101.68,888.49z"/>
		<path class="st18" d="M1167.24,936.16c0,0-1.07-4.65,5.76-7.13c6.83-2.48,8.14,8.11,6.08,10.86
			C1177.01,942.64,1169.27,944.11,1167.24,936.16z"/>
		<path class="st18" d="M1129.88,885.82c0,0-1.08-4.65,5.76-7.13s8.15,8.11,6.08,10.86C1139.65,892.3,1131.92,893.78,1129.88,885.82
			z"/>
		<path class="st18" d="M1097.52,936.9c0,0-1.07-4.65,5.76-7.13c6.83-2.48,8.14,8.11,6.08,10.86
			C1107.29,943.38,1099.55,944.85,1097.52,936.9z"/>
		<path class="st18" d="M1179.89,884.28c0,0,2.81-1.38,5.4,2.61c2.59,3.99-3.96,6.4-6.02,5.49
			C1177.21,891.47,1175.12,886.75,1179.89,884.28z"/>
		<path class="st18" d="M1144.39,903.9c0,0,2.8-1.38,5.4,2.61c2.59,3.99-3.96,6.39-6.02,5.48
			C1141.71,911.09,1139.62,906.38,1144.39,903.9z"/>
		<path class="st18" d="M1099.63,904.21c0,0,2.8-1.37,5.4,2.61c2.59,3.99-3.96,6.39-6.02,5.48
			C1096.95,911.4,1094.86,906.69,1099.63,904.21z"/>
		<path class="st18" d="M1156.98,874.73c0,0-0.62-2.67,3.3-4.09c3.92-1.42,4.67,4.65,3.48,6.23
			C1162.58,878.45,1158.14,879.29,1156.98,874.73z"/>
		<path class="st18" d="M1054.42,911.18c0,0-0.62-2.67,3.3-4.09c3.92-1.42,4.67,4.65,3.48,6.23
			C1060.02,914.9,1055.59,915.75,1054.42,911.18z"/>
		<path class="st18" d="M1081.95,932.98c0,0-0.62-2.67,3.3-4.09c3.92-1.42,4.67,4.65,3.48,6.23
			C1087.55,936.7,1083.12,937.54,1081.95,932.98z"/>
		<path class="st18" d="M1161.29,848.7c0,0-0.62-2.67,3.3-4.09c3.92-1.42,4.67,4.65,3.48,6.23
			C1166.89,852.41,1162.46,853.26,1161.29,848.7z"/>
		<path class="st18" d="M1159.57,967.7c0,0-0.62-2.67,3.3-4.09c3.92-1.42,4.67,4.65,3.48,6.23
			C1165.17,971.41,1160.74,972.26,1159.57,967.7z"/>
		<path class="st18" d="M1173.57,959.98c0,0-0.62-2.67,3.3-4.09c3.92-1.42,4.67,4.65,3.48,6.23
			C1179.17,963.69,1174.74,964.54,1173.57,959.98z"/>
		<path class="st18" d="M1157.79,918.52c0,0-0.4-1.71,2.12-2.63c2.52-0.92,3,2.99,2.24,4
			C1161.39,920.91,1158.54,921.45,1157.79,918.52z"/>
		<path class="st18" d="M1117.99,950.36c0,0-0.4-1.71,2.12-2.63c2.52-0.92,3,2.99,2.24,4
			C1121.59,952.74,1118.74,953.29,1117.99,950.36z"/>
		<path class="st18" d="M1177.42,948.04c0,0-0.39-1.71,2.12-2.63c2.52-0.92,3,2.99,2.24,4
			C1181.02,950.42,1178.17,950.97,1177.42,948.04z"/>
		<path class="st18" d="M1149.08,884.29c0,0-0.4-1.71,2.12-2.63c2.52-0.91,3,2.99,2.24,4
			C1152.67,886.68,1149.82,887.22,1149.08,884.29z"/>
		<path class="st18" d="M1077.48,894.44c0,0-0.4-1.71,2.12-2.63c2.52-0.91,3,2.99,2.24,4
			C1081.08,896.83,1078.23,897.37,1077.48,894.44z"/>
		<path class="st18" d="M1108.26,920.67c0,0-0.39-1.71,2.12-2.62c2.52-0.92,3,2.99,2.24,4
			C1111.86,923.06,1109.01,923.6,1108.26,920.67z"/>
		<path class="st18" d="M1177.11,866.56c0,0-0.76-3.29,4.08-5.05c4.84-1.76,5.77,5.75,4.3,7.69
			C1184.03,871.15,1178.56,872.19,1177.11,866.56z"/>
		<path class="st18" d="M1143.61,931.76c0,0-0.76-3.3,4.08-5.05c4.84-1.76,5.77,5.74,4.3,7.69
			C1150.52,936.35,1145.05,937.39,1143.61,931.76z"/>
		<path class="st18" d="M1175.04,915.8c0,0-0.76-3.29,4.08-5.05c4.84-1.76,5.77,5.74,4.3,7.69S1176.48,921.43,1175.04,915.8z"/>
		<path class="st18" d="M1132.03,860.1c0,0-0.76-3.29,4.08-5.05c4.84-1.76,5.77,5.74,4.3,7.69
			C1138.95,864.69,1133.47,865.73,1132.03,860.1z"/>
		<path class="st18" d="M1079.02,914.09c0,0-0.76-3.29,4.08-5.05c4.84-1.76,5.77,5.74,4.3,7.69
			C1085.94,918.68,1080.46,919.72,1079.02,914.09z"/>
		<path class="st27" d="M1048.89,876.02c0,0-25.2,8.48-3.99,26.78c21.21,18.3,46.44,25.33,69.59,40.41
			c23.15,15.08,43.29,38.62,58.13,37c14.84-1.63-37.47-48.29-50.33-67.81c-12.86-19.52-29.57-45.09-37.42-48
			C1077.04,861.5,1048.89,876.02,1048.89,876.02z"/>
		<path class="st27" d="M1108.57,875.19c0,0-17.02-18.63-5.11-25.77c11.91-7.13,13.38,3.22,23.9,20.67
			c10.52,17.44,50.2,93.25,52.99,102.03c2.79,8.79-18-23.21-32.98-41.73C1132.38,911.88,1108.57,875.19,1108.57,875.19z"/>
		<path class="st25" d="M1062.97,859.6c-11.22-5.29-18.86-13.63-32.46-13.13c-13.4,0.49-22.58,9.56-29.46,20
			c-1.32,1.99,6.75,5.37,7.94,3.57c6.44-9.77,11.75-18.5,24.46-18.98c12.13-0.45,19.98,7.94,29.96,12.64
			C1067.04,865.41,1065.08,860.59,1062.97,859.6z"/>
		<path class="st25" d="M1234.59,882.3c1.29-12.33-1.89-23.19,5.58-34.56c7.36-11.21,19.88-14.36,32.37-14.84
			c2.39-0.09,1.09,8.56-1.06,8.64c-11.69,0.45-21.91,0.46-28.9,11.09c-6.66,10.14-3.56,21.21-4.71,32.18
			C1237.45,888.79,1234.35,884.62,1234.59,882.3z"/>
		<path class="st25" d="M1070.02,855.38c-11.96-12.76-19.9-23.68-34.79-34.45c-6.17-4.46-16.52,2.72-3.42,7.73
			c15.46,5.92,25.56,18.78,36.43,30.4C1071.5,862.52,1072.34,857.86,1070.02,855.38z"/>
		<path class="st25" d="M1085.43,776c-8.76,19.45-6.39,37.13,1.12,54.08c0.51,1.16,4.65,2.31,3.78,0.34
			c-7.34-16.58-6.64-35.57,1.92-54.58C1092.87,774.43,1086.15,774.39,1085.43,776z"/>
		<path class="st25" d="M1255.55,811.71c-18.26,11.04-26.34,26.93-29.79,45.15c-0.23,1.24,2.52,4.54,2.92,2.42
			c3.37-17.82,14.73-33.05,32.58-43.84C1262.57,814.65,1257.05,810.8,1255.55,811.71z"/>
		<path class="st25" d="M1100.77,755.99l-6.5-0.12c0-2.4-0.78-6.06-0.54-7.58c0.42-2.6-2.53-3.97-3.84-1.47
			c-0.87,1.65-2.11,5.37-3.68,7.07c-2.03-0.85-5.53-2.09-7.85-2.45c-3.28-0.52-4.13,1.6-1.37,3.47c1.49,1.01,5.07,3.67,6.28,4.92
			c-0.67,1.79-1.12,3.58-1.38,5.52c-0.06,0.44,0.08,0.88,0.34,1.3c-0.01,0.01-0.01,0.02-0.02,0.03c-1.92,2.33,2.27,3.93,3.9,2.04
			c1.62-1.88,1.82-2.65,3.65-4.32c1.75,1.2,3.38,2.55,4.91,4.14c1.08,1.13,7.63,3.22,5.75,0.25c-0.12-0.19-0.27-0.38-0.4-0.58
			c0,0,0.01,0,0.01,0c-0.01-0.01-0.02-0.02-0.03-0.03c-1.18-1.74-4.9-6.58-2.52-6.18c0.29-0.26,0.53-0.57,0.69-0.96
			c2.05-0.19,4.04-0.51,5.6-0.6C1107.76,760.2,1102.8,756.02,1100.77,755.99z"/>
		<path class="st25" d="M1122.95,1033.15l-2.65-6.62c2.42-1.03,5.8-3.37,7.43-3.77c2.81-0.69,2.93-4.25-0.14-4.52
			c-2.04-0.17-6.33,0.16-8.72-0.71c-0.01-2.41-0.25-6.48-0.87-8.99c-0.88-3.55-3.38-3.5-4.1,0.09c-0.39,1.94-1.55,6.69-2.3,8.45
			c-2.09,0.09-4.09,0.4-6.17,0.96c-0.47,0.13-0.86,0.46-1.17,0.9c-0.01,0-0.03-0.01-0.04-0.01c-3.17-0.95-3.01,3.97-0.4,4.81
			c2.59,0.84,3.46,0.71,5.92,1.85c-0.47,2.28-1.13,4.51-2.09,6.73c-0.68,1.57-0.01,9.08,2.2,5.92c0.14-0.2,0.27-0.43,0.41-0.65
			c0,0,0,0.01,0,0.01c0.01-0.02,0.01-0.03,0.02-0.05c1.26-1.94,4.56-7.76,5.17-5.18c0.38,0.18,0.8,0.29,1.26,0.29
			c1.06,1.99,2.23,3.86,3,5.41C1121.67,1042.01,1123.78,1035.21,1122.95,1033.15z"/>
		<path class="st25" d="M1195.77,1077.5l-0.76-6.62c2.44-0.33,6.06-1.61,7.63-1.57c2.7,0.07,3.69-3.11,0.98-4.11
			c-1.8-0.66-5.74-1.42-7.68-2.78c0.59-2.17,1.37-5.9,1.43-8.31c0.08-3.41-2.19-3.98-3.72-0.93c-0.83,1.66-3.04,5.65-4.15,7.05
			c-1.91-0.44-3.79-0.65-5.8-0.65c-0.45,0-0.88,0.2-1.28,0.52c-0.01-0.01-0.02-0.01-0.04-0.02c-2.62-1.63-3.69,2.84-1.54,4.24
			c2.13,1.39,2.94,1.49,4.88,3.12c-0.98,1.94-2.13,3.79-3.55,5.55c-1,1.25-2.24,8.19,0.53,5.88c0.18-0.15,0.35-0.32,0.53-0.48
			c0,0,0,0.01,0,0.01c0.01-0.01,0.02-0.02,0.03-0.03c1.61-1.44,6.03-5.88,5.94-3.4c0.3,0.26,0.65,0.46,1.07,0.57
			c0.47,2.06,1.06,4.03,1.37,5.61C1192.44,1085.17,1196.01,1079.56,1195.77,1077.5z"/>
		<path class="st25" d="M1307.11,847.75l-6.79-5.66c2.04-2.55,4.34-7.09,5.88-8.49c2.66-2.41,0.7-6.36-2.82-4.84
			c-2.33,1.01-6.8,3.9-9.92,4.36c-1.42-2.62-4.09-6.92-6.24-9.29c-3.04-3.35-5.74-1.82-4.41,2.51c0.72,2.34,2.25,8.21,2.46,10.56
			c-2.23,1.33-4.23,2.84-6.16,4.68c-0.44,0.41-0.66,1-0.75,1.67c-0.02,0.01-0.04,0.01-0.05,0.01c-4.01,0.83-0.94,6.1,2.4,5.48
			c3.31-0.61,4.19-1.26,7.54-1.47c0.84,2.77,1.42,5.59,1.68,8.57c0.18,2.12,5.34,9.91,5.89,5.16c0.04-0.31,0.04-0.63,0.07-0.95
			c0,0,0.01,0,0.01,0.01c0-0.02-0.01-0.04-0.01-0.06c0.23-2.86,0.41-11.15,2.59-8.69c0.53-0.03,1.04-0.15,1.54-0.43
			c2.34,1.54,4.71,2.9,6.46,4.13C1310.93,858.17,1309.23,849.52,1307.11,847.75z"/>
		<path class="st25" d="M1008.64,807.85l-2.06,7.05c-2.62-0.71-6.84-0.95-8.42-1.67c-2.72-1.23-5.08,1.58-2.75,3.75
			c1.54,1.44,5.23,3.89,6.62,6.11c-1.53,1.96-3.92,5.41-5.01,7.83c-1.54,3.43,0.52,4.98,3.38,2.53c1.55-1.33,5.51-4.43,7.24-5.38
			c1.75,1.26,3.57,2.28,5.61,3.14c0.46,0.2,0.98,0.17,1.52,0.02c0.01,0.01,0.02,0.02,0.03,0.04c1.97,2.78,4.96-1.31,3.38-3.65
			c-1.56-2.32-2.35-2.77-3.63-5.26c1.83-1.55,3.79-2.93,5.98-4.12c1.55-0.84,5.78-7.36,1.98-6.2c-0.24,0.07-0.5,0.18-0.74,0.26
			c0,0,0-0.01,0-0.01c-0.01,0.01-0.03,0.02-0.04,0.02c-2.25,0.78-8.64,3.39-7.49,0.91c-0.19-0.39-0.46-0.75-0.84-1.04
			c0.41-2.29,0.64-4.55,1.01-6.29C1015.32,801.48,1009.29,805.65,1008.64,807.85z"/>
		<path class="st25" d="M1278.91,812.7l-2.38-5.83c2.14-0.92,5.11-3.01,6.54-3.37c2.48-0.63,2.57-3.77-0.15-3.99
			c-1.8-0.14-5.58,0.18-7.7-0.58c-0.02-2.13-0.26-5.72-0.82-7.93c-0.79-3.13-3-3.07-3.62,0.1c-0.33,1.71-1.33,5.91-1.99,7.47
			c-1.85,0.09-3.61,0.38-5.44,0.88c-0.41,0.11-0.75,0.41-1.03,0.8c-0.01,0-0.02-0.01-0.04-0.01c-2.8-0.82-2.63,3.52-0.32,4.25
			c2.29,0.72,3.05,0.61,5.23,1.6c-0.4,2.02-0.97,3.99-1.81,5.95c-0.6,1.39,0.04,8.02,1.98,5.21c0.12-0.18,0.24-0.38,0.36-0.57
			c0,0,0,0.01,0,0.01c0.01-0.01,0.01-0.03,0.02-0.04c1.1-1.72,3.99-6.88,4.54-4.61c0.34,0.16,0.71,0.25,1.12,0.25
			c0.95,1.75,2,3.4,2.68,4.76C1277.82,820.53,1279.65,814.52,1278.91,812.7z"/>
		<path class="st28" d="M1275.94,861.15l-6.23,0.91c-0.38-2.29-1.69-5.68-1.7-7.16c-0.01-2.55-3.04-3.4-3.91-0.81
			c-0.57,1.71-1.17,5.46-2.41,7.34c-2.07-0.49-5.61-1.12-7.89-1.11c-3.23,0.02-3.7,2.18-0.77,3.54c1.58,0.73,5.42,2.71,6.78,3.72
			c-0.36,1.81-0.5,3.6-0.45,5.49c0.01,0.43,0.22,0.83,0.53,1.19c-0.01,0.01-0.01,0.02-0.02,0.03c-1.47,2.52,2.79,3.4,4.05,1.34
			c1.25-2.05,1.32-2.82,2.81-4.7c1.87,0.87,3.64,1.91,5.34,3.19c1.21,0.91,7.8,1.88,5.54-0.67c-0.14-0.17-0.31-0.32-0.47-0.49
			c0,0,0.01,0,0.01,0c-0.01-0.01-0.02-0.02-0.03-0.03c-1.41-1.48-5.72-5.52-3.38-5.51c0.24-0.29,0.42-0.63,0.5-1.02
			c1.93-0.5,3.78-1.12,5.26-1.46C1283.28,864.09,1277.88,860.87,1275.94,861.15z"/>
		<path class="st25" d="M990.97,893.52l5.35-3.32c1.27,1.95,3.83,4.52,4.42,5.88c1.03,2.34,4.14,1.9,3.9-0.82
			c-0.16-1.8-1.11-5.47-0.73-7.69c2.09-0.38,5.6-1.22,7.68-2.14c2.95-1.3,2.52-3.48-0.71-3.55c-1.75-0.04-6.05-0.32-7.7-0.7
			c-0.4-1.8-0.98-3.5-1.79-5.22c-0.18-0.39-0.53-0.67-0.96-0.88c0-0.02,0-0.03,0-0.04c0.34-2.9-3.91-2-4.24,0.39
			c-0.33,2.38-0.08,3.11-0.69,5.43c-2.06-0.06-4.1-0.29-6.17-0.79c-1.47-0.35-7.9,1.39-4.81,2.82c0.2,0.09,0.42,0.17,0.63,0.26
			c0,0,0,0-0.01,0c0.01,0.01,0.03,0.01,0.04,0.01c1.88,0.79,7.46,2.78,5.3,3.7c-0.1,0.36-0.13,0.74-0.05,1.14
			c-1.57,1.23-3.01,2.54-4.24,3.44C983.06,893.76,989.29,894.55,990.97,893.52z"/>
		<path class="st27" d="M976.86,802.52c0,0-5.87,6.41,2.56,4.94c8.43-1.48,8.57-7.15,17.71-18c9.13-10.85,6.99-13.81,13.39-17
			c6.4-3.19,12.91-2.11,27.31,16.28c14.41,18.39,35.26,46.44,42.06,55.85c6.8,9.41,10.09,14.04,14.72,16.78
			c4.64,2.75,8.39,2.43-3.41-11.91c-11.79-14.34-44.52-57.21-50.73-63.6c-6.21-6.39-19.04-21.14-29.61-19.61
			c-10.56,1.53-11.48,11.42-21.08,21.18C980.18,797.2,976.86,802.52,976.86,802.52z"/>
	</g>
	<g style="display:none;clip-path:url(#SVGID_00000075855799942512769050000010978059594236269440_);">
		<path class="st29" d="M1398.98,652.15c0.61-0.51,1.22-1.02,1.84-1.53c0.23-0.37,0.49-0.71,0.83-0.97
			c2.19-1.71,4.34-3.46,6.53-5.17c23.97-20.02,47.96-40.04,71.92-60.07c25.97-21.71,51.83-43.63,75.46-67.92
			c2.24-2.31,4.5-0.59,5.58,2c2.07-1.72,2.62-1.76,5.97-2.09c3.01-0.29,4.39,2.76,2.89,5.18c-4.91,7.96-13.25,13.57-20.34,19.63
			c-6.72,5.75-13.46,11.47-20.22,17.18c-13.56,11.44-27.17,22.8-40.87,34.08c-25.33,20.86-50.92,41.4-76.71,61.68
			c-2.6,2.16-5.19,4.33-7.78,6.5C1399.47,664.48,1395.4,655.14,1398.98,652.15z"/>
		<g class="st3">
			<path class="st30" d="M1768.22,758.13c0,0,192.45-256.73-2.99-442.05c-195.44-185.32-364.18-42.15-364.18-42.15
				s89,37.77,36.33,127.83c0,0,111.25,15.94,78.72,116.91c0,0,122.43-15.33,110,85.63c-0.27,2.2,7.77-2.31,7.77-2.31
				s165.82-22.27,127.22,154.9"/>
			<g>
				<path class="st31" d="M1785.21,339.37c0.08-0.77,0.16-1.5,0.24-2.25c161.05,183.1-17.24,421.01-17.24,421.01l-7.14-1.26
					c30.66-140.7-67.61-155.61-109.36-155.79C1691.11,589.72,1764.19,541.15,1785.21,339.37z"/>
				<path class="st31" d="M1626.38,604.82c-0.18-0.33-0.28-0.54-0.28-0.54s0.92,0.11,2.58,0.15
					C1627.67,604.79,1626.8,605,1626.38,604.82z"/>
			</g>
			<path class="st31" d="M1781.23,336.42c0,0-108.5,1.27-265.14,182.24c0,0,36.38-89.87-78.72-116.91
				C1437.37,401.75,1517.28,263.99,1781.23,336.42z"/>
			<path class="st32" d="M1806.34,415.31c0,0,30.83,82.98,22,110.5c-8.84,27.52-62.48,12.17-66.25-52.18
				c-3.78-64.35-44.4-131.93-75.2-167.35c-30.8-35.42-86.76-33.51-109.61-45.15c-22.86-11.64,31.69-15.88,68.08-2.85
				C1681.73,271.31,1777.36,324.86,1806.34,415.31z"/>
		</g>
		<path class="st29" d="M1775.7,335.23c-0.08,0.45-0.06,0.89,0.1,1.26c0.02,0.5,0.14,0.98,0.5,1.37c0.5,0.55,1.07,1.02,1.69,1.43
			c0.79,0.51,1.58,0.97,2.47,1.27c0.73,0.24,1.45,0.13,2.1-0.17c0.06,0.38,0.33,0.62,0.92,0.33c6.33-3.12,12.6-6.37,18.8-9.73
			c2.36-1.28,5.06-2.41,7.14-4.11c1.28-1.04,2.8-2.76,2.43-4.56c-0.08-0.41-0.26-0.72-0.49-0.99c0.42-0.94,0.22-2.5-0.89-2.86
			c-6.68-2.17-13.7-0.47-19.48,3.24c-1.32,0.85-2.57,1.81-3.76,2.85c-4.43,2.31-8.44,5.41-11.71,9.2
			C1774.99,334.41,1775.23,335.08,1775.7,335.23z M1805.44,327.45c0.36-0.23,0.72-0.46,1.06-0.7c0.54-0.22,1.03-0.61,1.42-1.09
			c0.76-0.64,1.45-1.36,2.07-2.16c-0.01,0.24-0.1,0.51-0.28,0.83C1808.87,325.76,1807.07,326.66,1805.44,327.45z"/>
	</g>
	<g style="display:none;clip-path:url(#SVGID_00000075855799942512769050000010978059594236269440_);">
		<path class="st33" d="M1398.78,770.22c-17.41,62.43,50.16,135.81,150.91,163.91c100.76,28.1,196.55,0.27,213.96-62.16
			c17.41-62.43-50.16-135.81-150.92-163.91C1511.98,679.97,1416.19,707.8,1398.78,770.22z"/>
		<g class="st3">
			<path class="st34" d="M1677.08,833.02c5.93-18.4-19.91-48.5-79.55-66.86c-51.16-15.75-99-11-104.94,7.4
				c-5.93,18.4,30.56,46.62,81.51,63.04C1625.04,853.02,1671.15,851.42,1677.08,833.02z"/>
			<path class="st35" d="M1672.68,839.42c-13.83,12.09-54.37,11.43-98.58-2.82c-41.45-13.36-73.32-34.53-80.57-51.87
				c12.03-13.63,52.67-14.93,97.46-2.07C1638.54,796.33,1673.66,821.06,1672.68,839.42z"/>
		</g>
		<path class="st33" d="M1741.02,819.58c0,0,35.05-0.18,50.41-31.39c10.2-20.74,26.51,45.26-27.78,83.78
			C1763.65,871.97,1732.75,846.95,1741.02,819.58z"/>
		<path class="st36" d="M1423.42,501.74c0,0-9.98,28.35-35.12,40.27c-25.14,11.92-11.23,39.55-3.52,41.55
			c7.71,2-15.82,19.76-37.31-10.98c-21.5-30.75,16.26-94.53,35.18-101.48C1401.56,464.15,1423.42,501.74,1423.42,501.74z"/>
		<path class="st29" d="M1421.76,505.71c-3.73,8.2-4.79,21.2-33.46,36.31c-24.61,12.97-11.23,39.55-3.52,41.55
			c7.71,2-15.82,19.76-37.31-10.98c-9.18-13.13-7.54-32.28-1.19-50.46c-5.11,33.53,20.08,25.88,23,23.16
			c3.89-3.63,11.6-5.3,23.81-13c12.2-7.7,21.38-21.35,21.38-21.35L1421.76,505.71z"/>
		<path class="st33" d="M1421,816.61c0,0-94.51-36.66-66.05-138.9c28.46-102.23,91.17-115.61,66.96-162.53c0,0-4.36,8.58-14.05-6.11
			c-9.69-14.69-28.35-20.18-39.67-20.32c-11.32-0.14,8.75-47.76,39.62-60.18c30.86-12.41,99.04-13.84,95.99,53.84
			c-3.05,67.67-60.17,91.88-89.86,174.7c-29.69,82.82,50.56,74.82,50.56,74.82S1496.39,811.45,1421,816.61z"/>
		<path class="st37" d="M1378.55,495.23c0,0,18.33,6.79,15.79,16.73c-2.54,9.94-22.51,9.18-31.74,20.3
			c-9.23,11.13-7.59,27.65-4.92,35.36c2.67,7.72-9.63,10.02-14.26-4.64c-5.51-17.42-0.37-38.4,6.08-48.17
			c6.45-9.77,14.31-11.79,19.86-14.5C1374.91,497.59,1378.55,495.23,1378.55,495.23z"/>
		<path class="st38" d="M1416.39,483.84c-1.78,6.42,1.96,13.06,8.38,14.85c6.42,1.79,13.07-1.96,14.85-8.38
			c1.79-6.41-1.96-13.07-8.38-14.86C1424.83,473.67,1418.18,477.42,1416.39,483.84z"/>
		<path class="st29" d="M1422.8,485.62c-0.8,2.88,0.88,5.86,3.76,6.66c2.88,0.8,5.86-0.88,6.66-3.76c0.8-2.87-0.88-5.86-3.75-6.66
			C1426.58,481.07,1423.6,482.75,1422.8,485.62z"/>
		<path class="st39" d="M1397.11,802.98c-25.86-18.56-61.03-57.5-42.16-125.27c28.46-102.23,91.17-115.61,66.96-162.53
			c0,0-1.66,3.24-5.2,2.31c-3.31,6.05-9.2,13.13-21.93,20.85c-2.05,1.33-4.18,2.59-6.48,3.69c-0.58,0.3-1.08,0.63-1.62,0.95
			c14.89-14.81,21.18-33.9,21.18-33.9c12.04,7.22,21.84,1.36,21.84,1.36c11.46,23.92,1.42,44.43-15.78,68.98
			c-17.21,24.56-51.62,73.67-50.92,129.98c0.7,56.31,49.55,85.48,49.55,85.48c13.82,71.19,99.26,142.51,214.6,137.55
			c115.34-4.96,125.56-69.45,125.56-69.45c44.61-14.79,45.66-62.41,45.01-76.14c5.76,11.82,6.37,56.47-34.06,85.15
			c-17.41,62.43-113.2,90.26-213.96,62.16C1466.2,910.85,1405.54,856.46,1397.11,802.98z"/>
		<path class="st39" d="M1611.47,869.93c0,0-7.99-21.16-39.57-36.91c-31.58-15.75-67.85-5.67-83.57,18.99
			c-15.71,24.65,14.99,79.79,80.79,83.76c66.42,4.01,95.23-35.93,90.66-46.68C1655.2,878.34,1620.36,890.09,1611.47,869.93z"/>
		<path class="st33" d="M1617.95,864.79c0,0-7.99-21.16-39.57-36.91c-31.59-15.75-67.86-5.67-83.56,18.99
			c-15.72,24.65,14.99,79.79,80.79,83.76c66.42,4,95.23-35.93,90.66-46.68C1661.68,873.2,1626.84,884.95,1617.95,864.79z"/>
		<path class="st38" d="M1673.82,907.58c2.04-1.99,5.07-1.9,7.74-2.6c3.07-0.8,6.03-1.94,9.11-2.68c0.65-0.16-0.04,0.95-0.23,1.07
			c-4.84,3.16-10.54,4.9-16.12,6.26c-0.32,0.08-0.64-0.1-0.77-0.38c-0.08-0.16-0.16-0.32-0.24-0.48
			C1673.1,908.38,1673.57,907.82,1673.82,907.58z"/>
		<path class="st38" d="M1423.46,794.92c1.7-1.25,3.36-0.65,3.86,1.45c0.38,1.61-2.52,3.95-3.04,2.67
			c-0.01,0.02-0.02,0.05-0.04,0.07c-0.44-1.16-1.57-1.29-1.78-2.61C1422.37,795.89,1423.03,795.23,1423.46,794.92z"/>
		<g class="st40">
			<path class="st5" d="M1610.1,716.68c3.76,0.72,7.33,1.73,10.83,2.91c7.37,1.68,25.07,6.54,35.22,13.53
				c0.43-0.29,0.89-0.43,1.25-0.22c7.49,4.41,15.01,8.75,22.34,13.43c0.45,0.29-0.49,1.48-0.92,1.27c-2.67-1.27-5.29-2.62-7.92-3.96
				c4.06,3.24,8.14,6.48,12.2,9.73c1.33,1.06-1.49,4.25-2.93,3.48c-6.16-3.31-12.33-6.63-18.49-9.94c-0.49,0.29-1.02,0.39-1.55,0.1
				c-8.79-4.82-17.47-9.8-26.08-14.95c-0.91-0.55-0.03-2.25,1.13-3.17c-0.34-0.14-0.7-0.24-1.04-0.38
				c-0.79,0.97-1.85,1.73-2.58,1.41c-4.66-2.01-9.32-4.02-13.98-6.02c-3.26-1.13-6.58-2.13-10.09-3.02
				C1605.51,720.4,1608.39,716.35,1610.1,716.68z"/>
			<path class="st5" d="M1545.66,705.01c1.95,0.3,3.85,0.4,5.73,0.4c0.38-0.31,0.76-0.54,1.03-0.57c3.48-0.4,6.96-0.81,10.44-1.22
				c1.8-0.21,1.17,1.62,0.16,3.06c2.39,0.39,4.77,0.9,7.15,1.6c0.68,0.2,0.77,0.78,0.57,1.44c2.66,0.54,5.26,1.18,7.36,2.96
				c0.17,0.15-0.17,0.46-0.31,0.49c-2.25,0.4-4.66,0.41-7.12,0.21c-0.11,0.28-0.23,0.54-0.35,0.73c-1.01,1.72-1.72,2.76-3.66,3.37
				c-1.2,0.38-1.15-0.66-0.81-1.46c-7.74-2.13-15.45-4.24-23.29-6.01C1540.2,709.48,1543.64,704.7,1545.66,705.01z"/>
			<path class="st5" d="M1755.82,831.38c2.51-1.71,5.01-3.42,7.52-5.13c0.19-0.13,0.33-0.17,0.49-0.25c0.1-0.07,0.21-0.14,0.31-0.21
				c0.64-0.48,1.28-0.95,1.91-1.44c0.01-0.01,0.01-0.02,0.02-0.04c2.19-3.53,4.99-5.7,8.82-6.91c0.95-0.93,2.04-1.72,3.22-2.44
				c1.29-1.69,2.44-3.5,3.52-5.4c-0.04-0.03-0.06-0.07-0.09-0.1c-0.18-0.15,0.17-0.54,0.34-0.54c0.05,0,0.08,0,0.13,0
				c0.17-0.31,0.37-0.6,0.54-0.92c0.96-1.85,5.04-3.21,3.66,0.1c-0.07,0.18-0.16,0.36-0.23,0.54c1.06-0.1,0.46,2.02-0.32,2.78
				c-0.34,0.33-0.69,0.64-1.02,0.97c-1.16,3.62-2.94,6.81-5.41,9.67c-2.01,3.26-4.27,6.33-6.9,9.01
				c-3.49,3.56-10.81,9.28-15.43,4.64c-0.21-0.21-0.25-0.5-0.22-0.79c-0.23,0.14-0.45,0.32-0.69,0.46
				C1752.65,837.41,1754.02,832.61,1755.82,831.38z"/>
			<path class="st5" d="M1623.25,861.49c6.1,2.33,10.64,7.51,16.96,9.97c5.24,2.04,11.53,1.79,16.05,5.27
				c0.76,0.59-0.49,2.07-1.01,2.36c-1.24,0.68-1.2,0.76-2.58,0.53c-0.23-0.04,0.07-0.41,0.15-0.46c0.11-0.1,0.22-0.2,0.32-0.31
				c-10.53-4.01-26.95-1.86-32.75-13.95C1619.83,863.71,1621.94,860.98,1623.25,861.49z"/>
			<path class="st5" d="M1543.45,828.52c20.69-9.64,49.45,6.28,61.37,23.53c0.34,0.49-0.76,1.78-1.3,1.54
				c-8.59-3.83-15.44-10.45-23.68-14.98c-12.8-7.03-23.47-7.38-37.65-6.17C1539.69,832.66,1542.57,828.93,1543.45,828.52z"/>
			<path class="st5" d="M1514.95,840.17c1.89-1.91,4.44-4.24,7.23-4.45c1.76-0.13,0.26,2.32-0.27,2.81
				c-1.62,1.51-3.51,2.69-5.06,4.29c-1.51,1.57-2.66,3.46-3.98,5.18c-0.67,0.88-3.16,1.98-2.71-0.09
				C1510.81,844.9,1512.83,842.32,1514.95,840.17z"/>
			<path class="st5" d="M1499.25,862.18c0.22-0.4,0.44-0.78,0.79-1.09c0.11-0.09,0.23-0.17,0.34-0.26c0.41-0.13,0.46-0.2,0.13-0.22
				c0.11-0.18,0.85-0.79,0.86-0.23c0,0.27,0.35,0.6,0.37,0.95c0.02,0.42-0.18,1.02-0.27,1.41c-0.22,1.04-0.55,1.9-1.04,2.84
				c-0.48,0.91-2.85,2.38-2.61,0.35C1497.99,864.62,1498.62,863.32,1499.25,862.18z"/>
			<path class="st5" d="M1753.34,821.84c2.19-0.05,4.35,0.09,6.33-1.02c0.54-0.3,0.29,0.43,0.02,0.62c-1.99,1.41-4.6,2.47-6.84,1.18
				C1752.55,822.45,1753.13,821.84,1753.34,821.84z"/>
			<path class="st5" d="M1710.59,889.6c5.04-6.05,13.15-10.05,19.61-14.46c1.18-0.81,1.65-0.48,1.72,0.22
				c2.2-2.7,4.38-5.45,6.5-8.27c0.55-0.73,1.53-0.51,0.95,0.46c-0.22,0.37-0.48,0.71-0.7,1.07c0.58-0.1,0.96,0.19,0.72,1.28
				c-2.05,9.43-9.86,13.49-16.42,19.09c-1.7,1.83-3.43,3.63-5.2,5.39c0,0-0.01,0.01-0.01,0.01l0,0c-0.15,0.15-0.29,0.32-0.45,0.47
				c-1.89,1.87-2.65-0.04-1.76-1.7c-0.34,0.21-0.65,0.47-0.99,0.68c-2.75,1.68-1.85-1.96-0.63-3.13c0.57-0.55,1.14-1.1,1.71-1.65
				c-1.66,0.87-3.33,1.54-5,1.88C1709.81,891.11,1710.38,889.85,1710.59,889.6z"/>
			<path class="st5" d="M1671.05,903.41c2.24-1.11,4.97-0.95,7.43-1.37c2.64-0.45,5.25-1.03,7.84-1.73c0.2-0.06,0.36,0.07,0.46,0.22
				c0.07,0.12,0.15,0.24,0.22,0.36c0.03,0.05-0.03,0.15-0.06,0.18c-1.72,2.05-4.94,2.4-7.46,2.97c-2.38,0.54-6.98,2.13-9.15,0.75
				C1669.8,904.45,1670.78,903.55,1671.05,903.41z"/>
			<path class="st5" d="M1649.65,914.09c0.67-1.2,1.76-1.76,3.12-1.74c0.37,0,0.54,0.12,0.6,0.5c0.04,0.3,0.09,0.59,0.13,0.88
				c0.02,0.1-0.1,0.25-0.18,0.29c-0.98,0.52-2.46,1.32-3.62,1.03C1649.25,914.94,1649.51,914.33,1649.65,914.09z"/>
			<path class="st5" d="M1444.11,816.33c0.62,0.47,2.16,2.16,4.15,4.45c0.57-1.73,2.92-3.75,3.92-2.26
				c5.58,8.32,12.43,15.86,19.83,22.6c0.14,0.12-0.16,0.46-0.32,0.38c-0.46-0.26-0.87-0.55-1.32-0.81c0.67,0.57,1.29,1.19,1.99,1.75
				c0.36,0.29,0.42,0.99,0.29,1.39c-1.57,4.96-5.35,6.34-9.25,2.87c-4.51-4.01-8.33-9.54-12.29-14.08
				c-3.61-4.14-7.6-8.06-10.33-12.84C1440.04,818.46,1442.76,815.31,1444.11,816.33z"/>
			<path class="st5" d="M1478.67,716.23c7.64-2.01,14.3-4.42,22.37-3.5c0.31,0.04,0.18,0.37-0.06,0.67
				c0.76,0.11,1.48,0.27,2.16,0.54c1.54,0.63-0.51,3.1-1.42,3.37c-3.86,1.13-8.04,0.8-12.04,1.22c-4.32,0.44-8.59,1.12-12.83,2.03
				C1474.51,721.05,1477.11,716.64,1478.67,716.23z"/>
			<path class="st5" d="M1404.2,443.36c13.48-5.99,29.62-10.92,44.31-7.53c0.42-0.33,0.83-0.57,1.12-0.61
				c15.31-1.83,28.25,5.77,34.06,20.09c0.16,0.4,0.08,0.96-0.15,1.56c1.17,2.57,1.93,5.39,2,8.66c0.02,0.83-1.24,2.57-2.45,3.54
				c-0.06,0.37-0.07,0.73-0.15,1.11c-0.01,0.07-0.22,0.27-0.23,0.12c-0.02-0.31-0.07-0.58-0.09-0.88c-0.78,0.47-1.46,0.52-1.7-0.36
				c-3.85-14.31-19.55-23.04-32.89-27.38c-15.75-5.13-29.24,3.69-44.71,4.41C1401.58,446.16,1403.55,443.64,1404.2,443.36z"/>
			<path class="st5" d="M1392.96,669.33c-0.55,5.82-0.68,12.41-0.25,19.26c-1.83,28.8,1.34,62.92,32.09,73.68
				c2.06,0.72,5.62-4.39,3.21-5.19c-1.25-0.42-2.36-0.95-3.52-1.45c-3.62-4.04-6.75-8.28-9.51-12.7c3.69,2.92,7.91,5.17,12.73,6.57
				c0.62,0.18,1.94-1.42,1.28-1.76c-10.33-5.33-17.72-13.83-22.84-23.81c-1.32-4.12-2.37-8.38-3.11-12.82
				c-2.92-17.32,0.46-34.26-0.69-51.5c-0.1-1.48-2.07,0.54-2.22,1.16c-0.47,2.01-0.88,4.09-1.25,6.19
				c-0.02-0.05-0.04-0.11-0.06-0.15c1.72-12.06,4.46-23.7,8.46-34.82c6-12.7,14.23-24.49,24.11-35.98c0.81-0.94,0.71-1.95,0.05-2.09
				c7.12-9.01,13.87-18.38,20.78-27.5c6.54-8.63,13.28-16.84,15.31-27.71c0.18-0.99-1.1-0.11-1.26,0.35
				c-7.87,22.68-27.84,40.96-41.96,60.59c-0.91,0.89-1.81,1.79-2.69,2.73c3.9-6.22,8.27-12.24,13.2-18.03
				c0.65-0.76,0.2-1.8-0.67-0.94c-10.33,10.25-18.37,22.11-24.54,34.92C1400.21,633.85,1394.58,652.06,1392.96,669.33z
				 M1397.77,716.09c1.9,5.77,4.38,11.21,7.52,16.03c4.12,8.79,9.83,16.64,17.49,22.81C1407.12,747.42,1400.3,732.55,1397.77,716.09
				z"/>
		</g>
		<path class="st39" d="M1537.51,759.82c13.55-4.8,28.96,0.04,42.46,3.24c13.72,3.25,30.67,5.42,41.67,14.93
			c0.24-0.12,0.47-0.2,0.65-0.17c8.48,1.68,15.85,4.63,23.04,8.89c0.16-0.43,0.65-0.88,0.99-0.79c7,1.75,13.36,8.25,18.13,13.4
			c0.97,1.04,2.09,2.19,3.19,3.43c4.36,2.58,7.55,8.64,9.03,12.84c2.22,6.27,2.31,12.73,0.39,19.08c-0.04,0.13-0.4,0.45-0.36,0.15
			c0.69-5.58-0.03-11.18-2.09-16.38c-0.17,5.82-0.39,11.64-0.5,17.47c0,0.11-0.27,0.36-0.28,0.18c-0.28-4.48-0.61-8.96-0.97-13.43
			c-0.35-4.31,0.25-8.56-3.48-11.44c-0.36-0.28,0.14-0.84,0.4-1.07c-0.43-0.54-0.82-1.13-1.29-1.64c-1.74-1.9-3.76-3.19-4.99-5.47
			c-0.24-0.44,0.31-1.13,0.83-1.36c-1.6-1.43-3.15-2.69-4.34-3.68c-3.38-2.83-7.53-5.05-11.12-7.73c-0.09,0.02-0.19,0.06-0.27,0.01
			c-5.33-2.95-10.69-5.12-16.26-6.79c4.58,2.93,8.89,6.22,13,9.87c7.74,4.69,16.11,10.09,21.03,17.24
			c2.65,3.87,3.17,7.79,3.12,11.77c0.12,0.17,0.25,0.32,0.37,0.49c1.73,2.5,4.47,7.37,0.78,9.42c-0.21,0.12-0.12-0.17-0.01-0.25
			c0.95-0.66,0.63-3.81,0.23-4.8c-0.26-0.65-0.85-1.4-1.46-2.12c-0.24,4.43-0.72,8.95,0.66,13.57c0.45,1.5-2.76,4.51-3.26,2.9
			c-2.08-6.64,0.15-13.59-0.73-20.21c-0.79-0.82-1.61-1.61-2.46-2.38c-3.22-2.91-6.83-5.22-10.39-7.67
			c-0.47-0.33,0.49-1.49,0.96-1.32c4.06,1.5,7.69,4,10.79,7.03c-0.06-0.15-0.08-0.29-0.14-0.43c-2.95-6.61-9.89-12.1-16.83-16.73
			c-0.32,0.12-0.63,0.13-0.86-0.07c-1.08-0.94-2.12-1.77-3.18-2.56c-2.34-1.49-4.6-2.89-6.58-4.19c-0.46-0.31-0.34-0.97,0.04-1.61
			c-5.35-4.07-11.02-7.63-17.15-10.83c-0.67-0.35-0.12-1.38,0.62-2.09c-11.28-7.13-27.05-8.9-39.5-11.54
			c-14.26-3.02-30.09-6.67-44.67-4.74C1535.28,762.44,1536.85,760.05,1537.51,759.82z"/>
		<path class="st39" d="M1608.56,785.76c8.15,0.72,16.18,5.38,23.07,10.81c-0.33-0.31,0.47-1.07,0.8-1.03
			c6.57,0.74,12.49,5.67,16.64,10.51c0.19,0.22-0.28,0.8-0.52,0.61c-2.58-2.05-5.32-3.97-8.2-5.59c-2.8-1.58-5.87-2.63-8.57-4.37
			c3.07,2.43,5.94,5.01,8.45,7.47c0.19,0.19-0.26,0.74-0.47,0.57c-4.83-3.93-9.92-7.33-15.43-10.21
			c-5.42-2.84-11.52-4.33-16.75-7.44C1607.04,786.75,1608.15,785.73,1608.56,785.76z"/>
		<path class="st39" d="M1584.4,781.07c9.52,0.81,18.56,5.05,27.15,8.97c0.46,0.21-0.23,1.15-0.63,1.02
			c-8.98-2.99-18.74-4.67-27.31-8.72C1582.99,782.05,1583.92,781.03,1584.4,781.07z"/>
		<path class="st39" d="M1547.6,769.74c10.41-1.68,21.88,5.09,29.83,11.17c0.49,0.37-0.54,1.56-1.06,1.27
			c-5.35-2.96-10.93-5.33-16.79-7.03c-4.32-1.25-9.09-1.56-13.04-3.69C1545.83,771.08,1547.2,769.8,1547.6,769.74z"/>
		<g class="st3">
			<path class="st34" d="M1413.15,810.61c0.06,0.25,0.15,0.5,0.21,0.75C1413.31,811.25,1413.25,811.04,1413.15,810.61z"/>
			<path class="st34" d="M1377.53,760.35c10.3,12.38,17.38,16.26,32.01,23.34c7.42,3.59,6.31,1.95,8.69,8.84
				c2,5.79-0.27,15.93,2.81,23.29c2.58,6.16,6.41,11.99,9.81,17.71c6.74,11.34,14.24,22.15,21.91,32.85
				c12.81,12.55,26.57,23.64,45.95,30.63c0.46,0.17-0.22,1.04-0.6,0.97c-35.03-7.15-61.33-35.15-82.8-62.21
				c-1.1-1.38,1.79-4.99,3.16-3.76c3.39,3.05,6.62,6.13,9.73,9.23c-6.86-9.9-12.44-20.18-14.84-29.88
				c0.58,1.41-2.37-18.75-0.61-13.51c-3.1-9.2-10.15-9.21-17.56-12.82c-9.6-4.69-16.79-11.88-20.36-21.91
				C1374.48,762.13,1376.6,759.24,1377.53,760.35z"/>
		</g>
		<path class="st39" d="M1408.21,505.2c2.12,0.98,4.28,1.77,6.44,2.45c7.59,2.34,15.3,2.52,22.91,0.47
			c1.95-0.75,3.89-1.66,5.79-2.81c0.74-0.45,0.89-0.05,0.76,0.47c0.53-0.24,1.08-0.42,1.61-0.68c1.62-0.79,1.73,0.34,1.3,1.65
			c2.72-0.42,0.29,4.41-1.57,5.12c-2.3,3-4.59,6-6.89,9.01c-2.59,6.71-3.81,13.56-5.45,21.23c-1.04,4.86-2.96,8.69-7.38,11.16
			c-1.56,0.87-1.61-0.88-0.76-1.79c5.3-5.7,4.29-16.39,6.5-23.57c0.18-0.61,0.43-1.18,0.63-1.78c0.01-0.16,0.04-0.31,0.05-0.48h0
			c0,0,0.01,0,0.01-0.01c0.22-4.17,1.51-7.96,3.72-11.09c-0.05,0.01-0.1,0.02-0.15,0.03c-7.57,3.29-15.75,4.53-22.56-1.22
			c-2.55-0.75-5.09-1.69-7.61-2.87c-0.17-0.07-0.34-0.12-0.51-0.2c0-0.01,0.01-0.01,0.01-0.02c-0.14-0.07-0.27-0.11-0.42-0.18
			C1402.89,509.28,1406.44,504.36,1408.21,505.2z"/>
		<path class="st39" d="M1368.09,474.31c0.13-0.23,0.22-0.47,0.36-0.69c0.57-0.92,3.23-2.73,2.92-0.39
			c-0.32,2.43-0.62,4.87-0.94,7.31c0.08,0.29,0.11,0.58,0.2,0.87c0.61,1.93,1.74,3.53,1.95,5.56c0.01,0.1-0.11,0.24-0.23,0.29
			c0.18,1.17-1.92,3.86-2.87,2.77c-0.49-0.56-0.92-1.15-1.3-1.76c-1.02,0.82-2.2,1.13-2.03-0.49c0.11-1.12,0.29-2.23,0.44-3.34
			c-0.58-2.42-0.45-4.96,0.33-7.39c-0.01-0.3-0.04-0.6-0.04-0.89C1366.86,475.59,1367.46,474.81,1368.09,474.31z"/>
		<path class="st39" d="M1748.19,855.98c15.39,1.08,27.95-5.68,38.21-16.75c0.03-0.04,0.1-0.04,0.06,0.03
			c-7.98,11.64-22.06,18.33-35.96,19.77c0.77,1.07,1.54,2.15,2.29,3.24c0.04,0,0.08,0.01,0.1,0.06c0.01,0.04,0.02,0.08,0.03,0.12
			c0.15,0.22,0.31,0.43,0.46,0.65c0.21,0.32,0.16,0.77-0.05,1.23c1.47,7.37-0.15,15.13-5.21,20.9c-0.46,0.51-1.23,0.41-0.75-0.36
			c3.86-6.13,5.88-12.52,5.31-19.59c-0.77,0.86-1.87,1.41-2.44,0.61c-1.6-2.27-3.12-4.55-4.59-6.91
			C1744.92,857.79,1747.13,855.91,1748.19,855.98z"/>
		<path class="st39" d="M1763.37,858.11c0.85-0.78,0.99,0.35,0.38,0.92c-2.5,2.33-4.52,5.04-6.26,7.97
			c-0.23,0.39-1.2,0.72-0.83-0.02C1758.29,863.58,1760.6,860.68,1763.37,858.11z"/>
		<path class="st39" d="M1660.52,896.14c1.7-1.74,3.39-3.24,4.59-5.41c1.1-2,1.65-4.14,2.04-6.37c0.07-0.38,1.21-1.38,1.2-0.63
			c-0.06,5.07-3.09,11.23-7.77,13.58C1659.7,897.75,1660.29,896.38,1660.52,896.14z"/>
		<path class="st39" d="M1658.13,901.67c5.23-4.48,9.23-9.04,10.91-15.9c0.1-0.4,1.1-1.12,0.96-0.39c-0.12,0.59-0.28,1.18-0.44,1.77
			c0.17-0.07,0.31-0.05,0.28,0.21c-0.59,6.04-3.78,12.99-9.37,15.96c-0.7,0.37-0.48-0.48-0.16-0.78c2-1.88,3.73-3.75,5.14-5.78
			c-1.63,1.68-3.25,3.35-4.88,5.03c-0.26,0.27-0.43-0.06-0.21-0.29c0.34-0.36,0.68-0.72,1.01-1.08c-0.99,0.79-2.06,1.48-3.2,2.03
			C1657.61,902.7,1657.94,901.83,1658.13,901.67z"/>
		<path class="st39" d="M1519.91,867.44c12.41,13.52,21.12,26.38,37.98,35.08c19.26,9.93,40.11,11.65,61.24,7.58
			c0.74-0.14-0.02,1.22-0.43,1.34c-36.25,10.85-87.46-1.43-102.03-40.66C1516.22,869.58,1518.73,866.15,1519.91,867.44z"/>
		<path class="st39" d="M1542.47,851.81c5.95,12.21,12.21,21.74,24,28.79c12.92,7.73,27.07,12.3,41.56,15.99
			c0.17,0.05-0.09,0.37-0.22,0.36c-29.5-2.48-56.59-13.75-69.9-41.08C1536.96,853.91,1541.37,849.55,1542.47,851.81z"/>
		<path class="st39" d="M1574.44,847.88c2.25,1.37,2.79,3.47,4,5.75c1.67,3.14,3.56,6.13,5.64,9.01c4.06,5.61,8.89,8.62,14.06,12.94
			c0.15,0.12-0.14,0.37-0.24,0.39c-7.16,1.76-12.61-3.16-17.05-8.31c-3.88-4.51-9.58-10.88-9.55-16.97
			C1571.29,849.49,1573.03,847.03,1574.44,847.88z"/>
	</g>
	<g style="clip-path:url(#SVGID_00000075855799942512769050000010978059594236269440_);">
		<g>
			<path class="st5" d="M1553.18,625.29c2.12,5.01,6.06,8.54,10.3,9.77c2.07-3.89,2.29-9.18,0.17-14.19
				c-2.12-5.01-6.06-8.54-10.3-9.77C1551.28,615,1551.06,620.28,1553.18,625.29z"/>
			<path class="st42" d="M1556.49,628.44c1.44,3.4,4.11,5.79,6.98,6.62c1.4-2.64,1.55-6.22,0.12-9.62c-1.44-3.4-4.11-5.79-6.98-6.62
				C1555.21,621.46,1555.06,625.04,1556.49,628.44z"/>
			<path class="st5" d="M1551,641.83c5.42-0.47,9.99-3.13,12.47-6.77c-3.06-3.17-8.02-5.01-13.44-4.55
				c-5.42,0.47-9.99,3.13-12.47,6.77C1540.62,640.46,1545.59,642.3,1551,641.83z"/>
			<path class="st42" d="M1555.02,639.65c3.67-0.32,6.78-2.12,8.46-4.59c-2.08-2.15-5.44-3.4-9.11-3.08
				c-3.67,0.32-6.77,2.12-8.46,4.59C1547.98,638.72,1551.35,639.97,1555.02,639.65z"/>
			<path class="st5" d="M1566.06,649.01c1.23-5.3,0.11-10.47-2.59-13.95c-3.96,1.93-7.25,6.08-8.48,11.38
				c-1.23,5.3-0.11,10.47,2.59,13.95C1561.55,658.46,1564.83,654.31,1566.06,649.01z"/>
			<path class="st42" d="M1565.23,644.52c0.83-3.59,0.08-7.1-1.76-9.46c-2.69,1.31-4.91,4.12-5.75,7.72
				c-0.84,3.59-0.08,7.1,1.75,9.46C1562.17,650.92,1564.4,648.11,1565.23,644.52z"/>
			<path class="st5" d="M1577.54,636.91c-4.66-2.81-9.92-3.34-14.07-1.85c0.62,4.37,3.55,8.77,8.2,11.58
				c4.66,2.81,9.92,3.34,14.07,1.85C1585.13,644.12,1582.2,639.72,1577.54,636.91z"/>
			<path class="st42" d="M1573.02,636.31c-3.16-1.9-6.73-2.27-9.54-1.25c0.42,2.96,2.4,5.95,5.56,7.85s6.73,2.27,9.54,1.25
				C1578.16,641.21,1576.17,638.22,1573.02,636.31z"/>
			<path class="st5" d="M1569.58,622.25c-4.11,3.56-6.25,8.4-6.11,12.81c4.34,0.76,9.44-0.66,13.55-4.22
				c4.11-3.56,6.25-8.4,6.11-12.81C1578.79,617.26,1573.69,618.69,1569.58,622.25z"/>
			<path class="st42" d="M1567.62,626.37c-2.79,2.42-4.23,5.7-4.14,8.69c2.94,0.52,6.4-0.45,9.19-2.86c2.79-2.42,4.23-5.7,4.14-8.69
				C1573.86,622.99,1570.4,623.96,1567.62,626.37z"/>
		</g>
		<g>
			<path class="st5" d="M1854.07,982.86c1.67,3.94,4.77,6.72,8.1,7.69c1.63-3.07,1.8-7.23,0.13-11.17
				c-1.67-3.95-4.77-6.72-8.11-7.69C1852.57,974.75,1852.4,978.91,1854.07,982.86z"/>
			<path class="st42" d="M1856.68,985.33c1.13,2.67,3.24,4.56,5.5,5.21c1.1-2.08,1.22-4.9,0.09-7.58c-1.13-2.67-3.24-4.56-5.5-5.21
				C1855.66,979.84,1855.55,982.66,1856.68,985.33z"/>
			<path class="st5" d="M1852.35,995.88c4.27-0.37,7.87-2.46,9.82-5.33c-2.41-2.5-6.32-3.95-10.58-3.58
				c-4.27,0.37-7.87,2.46-9.82,5.33C1844.18,994.79,1848.09,996.24,1852.35,995.88z"/>
			<path class="st42" d="M1855.52,994.16c2.89-0.25,5.33-1.67,6.66-3.62c-1.63-1.69-4.28-2.68-7.18-2.43
				c-2.89,0.25-5.33,1.67-6.66,3.62C1849.97,993.43,1852.62,994.41,1855.52,994.16z"/>
			<path class="st5" d="M1864.21,1001.53c0.97-4.17,0.09-8.24-2.04-10.99c-3.12,1.52-5.7,4.79-6.67,8.96s-0.09,8.24,2.04,10.99
				C1860.66,1008.97,1863.24,1005.7,1864.21,1001.53z"/>
			<path class="st42" d="M1863.56,997.99c0.66-2.83,0.06-5.59-1.38-7.45c-2.11,1.03-3.87,3.25-4.53,6.08
				c-0.66,2.83-0.06,5.59,1.38,7.45C1861.14,1003.04,1862.9,1000.82,1863.56,997.99z"/>
			<path class="st5" d="M1873.25,992c-3.67-2.21-7.81-2.63-11.08-1.46c0.49,3.44,2.79,6.91,6.46,9.12
				c3.67,2.21,7.81,2.63,11.08,1.46C1879.22,997.68,1876.92,994.21,1873.25,992z"/>
			<path class="st42" d="M1869.68,991.53c-2.49-1.5-5.3-1.78-7.51-0.99c0.33,2.33,1.89,4.68,4.38,6.18c2.49,1.5,5.3,1.78,7.51,0.99
				C1873.73,995.38,1872.17,993.03,1869.68,991.53z"/>
			<path class="st5" d="M1866.98,980.46c-3.24,2.81-4.92,6.62-4.81,10.09c3.42,0.6,7.43-0.52,10.67-3.33
				c3.24-2.8,4.92-6.62,4.81-10.09C1874.23,976.53,1870.22,977.65,1866.98,980.46z"/>
			<path class="st42" d="M1865.43,983.71c-2.2,1.9-3.33,4.49-3.26,6.84c2.32,0.41,5.04-0.35,7.23-2.25c2.19-1.9,3.33-4.49,3.26-6.84
				C1870.35,981.04,1867.63,981.8,1865.43,983.71z"/>
		</g>
		<g>
			<path class="st5" d="M1853.18,746.38c1.67,3.94,4.77,6.72,8.11,7.69c1.63-3.07,1.8-7.23,0.13-11.17
				c-1.67-3.95-4.77-6.72-8.11-7.69C1851.69,738.27,1851.51,742.43,1853.18,746.38z"/>
			<path class="st42" d="M1855.79,748.85c1.13,2.68,3.24,4.56,5.5,5.21c1.1-2.08,1.22-4.9,0.09-7.57c-1.13-2.67-3.24-4.56-5.5-5.21
				C1854.78,743.36,1854.66,746.18,1855.79,748.85z"/>
			<path class="st5" d="M1851.47,759.4c4.27-0.37,7.87-2.46,9.82-5.33c-2.41-2.5-6.32-3.95-10.58-3.58
				c-4.27,0.37-7.87,2.46-9.82,5.33C1843.3,758.32,1847.2,759.77,1851.47,759.4z"/>
			<path class="st42" d="M1854.63,757.68c2.89-0.25,5.33-1.67,6.66-3.62c-1.64-1.69-4.28-2.67-7.18-2.43
				c-2.89,0.25-5.33,1.67-6.66,3.62C1849.09,756.95,1851.74,757.93,1854.63,757.68z"/>
			<path class="st5" d="M1863.33,765.05c0.97-4.17,0.09-8.24-2.04-10.99c-3.12,1.52-5.71,4.79-6.67,8.96
				c-0.97,4.17-0.09,8.24,2.04,10.99C1859.77,772.49,1862.36,769.22,1863.33,765.05z"/>
			<path class="st42" d="M1862.67,761.51c0.66-2.83,0.06-5.59-1.38-7.45c-2.12,1.03-3.87,3.25-4.53,6.08
				c-0.66,2.83-0.06,5.59,1.38,7.45C1860.26,766.56,1862.01,764.34,1862.67,761.51z"/>
			<path class="st5" d="M1872.37,755.52c-3.67-2.21-7.81-2.63-11.08-1.46c0.48,3.44,2.79,6.91,6.46,9.12
				c3.67,2.21,7.81,2.63,11.08,1.46C1878.34,761.2,1876.03,757.73,1872.37,755.52z"/>
			<path class="st42" d="M1868.8,755.05c-2.49-1.5-5.3-1.78-7.51-0.99c0.33,2.33,1.89,4.68,4.38,6.18c2.49,1.5,5.3,1.78,7.51,0.99
				C1872.85,758.9,1871.28,756.55,1868.8,755.05z"/>
			<path class="st5" d="M1866.09,743.98c-3.24,2.8-4.92,6.62-4.81,10.08c3.42,0.6,7.43-0.52,10.67-3.33
				c3.24-2.8,4.92-6.62,4.81-10.09C1873.34,740.05,1869.33,741.18,1866.09,743.98z"/>
			<path class="st42" d="M1864.55,747.23c-2.19,1.9-3.33,4.49-3.26,6.84c2.32,0.41,5.04-0.35,7.23-2.25
				c2.19-1.9,3.33-4.49,3.26-6.84C1869.46,744.57,1866.74,745.33,1864.55,747.23z"/>
		</g>
		<g>
			<path class="st5" d="M1790.47,957.7c-3.51,6-4.1,12.75-2.12,18.02c5.57-0.86,11.16-4.69,14.66-10.69
				c3.51-6.01,4.1-12.75,2.12-18.02C1799.56,947.87,1793.97,951.69,1790.47,957.7z"/>
			<path class="st42" d="M1789.78,963.5c-2.38,4.07-2.78,8.64-1.44,12.22c3.78-0.58,7.56-3.18,9.94-7.25
				c2.38-4.07,2.78-8.64,1.44-12.22C1795.95,956.84,1792.16,959.43,1789.78,963.5z"/>
			<path class="st5" d="M1771.86,968.14c4.63,5.19,10.85,7.84,16.49,7.59c0.9-5.57-1.01-12.06-5.64-17.25
				c-4.63-5.19-10.85-7.84-16.49-7.59C1765.32,956.45,1767.23,962.94,1771.86,968.14z"/>
			<path class="st42" d="M1777.17,970.58c3.14,3.52,7.36,5.32,11.18,5.14c0.61-3.77-0.68-8.17-3.82-11.7
				c-3.14-3.52-7.36-5.32-11.18-5.14C1772.73,962.66,1774.03,967.06,1777.17,970.58z"/>
			<path class="st5" d="M1776.04,989.06c6.37-2.79,10.81-7.9,12.31-13.33c-5.01-2.58-11.78-2.76-18.15,0.03
				c-6.37,2.79-10.81,7.9-12.31,13.33C1762.9,991.66,1769.67,991.85,1776.04,989.06z"/>
			<path class="st42" d="M1780,984.76c4.32-1.89,7.33-5.36,8.35-9.04c-3.4-1.75-7.99-1.87-12.3,0.02c-4.32,1.89-7.33,5.36-8.35,9.04
				C1771.09,986.53,1775.68,986.66,1780,984.76z"/>
			<path class="st5" d="M1797.22,991.55c-0.69-6.92-4.17-12.72-8.88-15.83c-4,3.97-6.27,10.35-5.58,17.27
				c0.69,6.92,4.17,12.72,8.88,15.83C1795.65,1004.84,1797.92,998.47,1797.22,991.55z"/>
			<path class="st42" d="M1794.37,986.45c-0.47-4.69-2.83-8.62-6.02-10.73c-2.71,2.69-4.25,7.02-3.78,11.71
				c0.47,4.69,2.83,8.63,6.02,10.73C1793.29,995.47,1794.83,991.15,1794.37,986.45z"/>
			<path class="st5" d="M1806.14,972.17c-6.79-1.48-13.39,0.04-17.8,3.55c2.54,5.03,7.91,9.16,14.7,10.64
				c6.8,1.48,13.39-0.04,17.8-3.55C1818.3,977.78,1812.94,973.65,1806.14,972.17z"/>
			<path class="st42" d="M1800.41,973.31c-4.61-1-9.08,0.03-12.07,2.41c1.72,3.41,5.36,6.21,9.97,7.22c4.61,1,9.08-0.03,12.07-2.41
				C1808.65,977.12,1805.02,974.32,1800.41,973.31z"/>
		</g>
	</g>
</g>
<g id="TEXTS" class="st43">
	<g class="st3">
		<text transform="matrix(1 0 0 1 142.6465 540)" class="st30 st44 st45">Summer</text>
		<g>
			<polygon class="st22" points="728.81,588.34 687.46,588.34 667.75,588.34 211.72,588.34 197.35,588.34 150.66,588.34 
				185.99,630.37 150.66,672.41 197.35,672.41 211.72,672.41 667.75,672.41 687.46,672.41 728.81,672.41 693.49,630.37 			"/>
			<rect x="150.66" y="588.34" class="st22" width="74.34" height="84.08"/>
			<text transform="matrix(1 0 0 1 196.8005 649.7183)" class="st30 st9 st46 st47">POOL PARTY</text>
		</g>
	</g>
	<rect x="150.66" y="744.72" class="st48" width="508.54" height="111.24"/>
	<text transform="matrix(1 0 0 1 150.6646 763.3779)" class="st3"><tspan x="0" y="0" class="st30 st49 st50">Lorem ipsum dolor sit amet, consectetuer </tspan><tspan x="0" y="31.53" class="st30 st49 st50">adipiscing elit, sed diam nonummy nibh euis</tspan><tspan x="488.07" y="31.53" class="st30 st49 st50">-</tspan><tspan x="0" y="63.06" class="st30 st49 st50">mod tincidunt ut laoreet dolore.</tspan></text>
</g>
</svg>
