<?xml version="1.0" encoding="utf-8"?>
<!-- Generator: Adobe Illustrator 28.0.0, SVG Export Plug-In . SVG Version: 6.00 Build 0)  -->
<svg version="1.1" id="Слой_1" xmlns="http://www.w3.org/2000/svg" xmlns:xlink="http://www.w3.org/1999/xlink" x="0px" y="0px"
	 viewBox="0 0 1920 1080" style="enable-background:new 0 0 1920 1080;" xml:space="preserve">
<style type="text/css">
	.st0{opacity:0.82;}
	.st1{fill:#84EADC;}
	.st2{fill:#5EDCF2;}
	.st3{display:none;}
	.st4{display:inline;fill:#EC94BA;}
	.st5{display:inline;}
	.st6{fill:#CF6CA0;}
	.st7{fill:#FFD6D8;}
	.st8{display:inline;fill:#EDCCBA;}
	.st9{display:inline;fill:#261B1A;}
	.st10{display:inline;opacity:0.34;fill:#FFFFFF;enable-background:new    ;}
	.st11{display:inline;fill:#FFFFFF;}
	.st12{display:inline;fill:#CF6CA0;}
	.st13{display:inline;opacity:0.43;}
	.st14{fill:#FFFFFF;}
</style>
<g class="st0">
	<path class="st1" d="M347.4,97.6c-4.7,39.5-26.4,76-62.4,97.4c-0.9,0.6-1.9,1.1-2.8,1.6c-0.3,0.2-0.5,0.3-0.8,0.4
		c-0.6,0.4-1.3,0.7-2,1.1c0,0,0,0-0.1,0c-0.1,0-0.1,0.1-0.2,0.1c0,0,0,0,0,0v0c-33.4,17.6-71.6,19-105.6,6.6c-2.6-0.9-5.1-1.9-7.6-3
		c-0.1,0-0.1-0.1-0.2-0.1c-2.5-1.1-4.9-2.2-7.4-3.4c-0.1-0.1-0.2-0.1-0.2-0.1s0,0,0,0c-10.1,15.9-23.6,29.7-40.4,40.1
		c0,0-0.1,0-0.1,0.1c-0.6,0.4-1.2,0.7-1.8,1.1c-3.8,2.2-7.6,4.3-11.5,6.1C71.6,261,34.7,261.2,2,248.6c-0.1,0-0.2-0.1-0.3-0.1
		c-0.6-0.2-1-0.4-1.3-0.5c-0.2-0.1-0.4-0.1-0.4-0.1V-0.1c0,0,0.1,0,0.1,0.1h322.2c2.1,2.9,4,6,5.9,9.1c0.2,0.4,0.5,0.8,0.7,1.2
		c0.3,0.5,0.6,1,0.9,1.4c6.4,11.3,11.1,23.1,14.2,35.1C348.3,63.7,349.4,80.9,347.4,97.6z"/>
</g>
<path class="st1" d="M347.4,97.6c-29-21-65.6-32.1-101-27.3c-16.7,2.2-32.9,8.2-47.1,17.2c-1.2,0.8-2.5,1.6-3.7,2.4
	c-3.1,2.2-6.1,4.4-9,6.9c-1.9,1.7-3.8,3.4-5.6,5.1c-1.6,1.6-3.1,3.2-4.6,4.8c0,0,0,0,0,0c-0.1,0.1-0.2,0.2-0.3,0.4
	c-1.3,1.4-2.5,2.8-3.6,4.3c0,0,0,0,0,0c0,0,0,0-0.1,0.1l0,0c-1.8,2.2-3.4,4.5-5,6.8c-2.9,4.3-5.5,8.8-7.6,13.6
	c-1.1,2.3-2,4.7-2.8,7.1c0,0,0,0,0,0c0,0,0,0,0,0v0c-1.3,3.8-2.2,7.7-2.9,11.6c-3.5,20.8,1.7,43,19,53.8c0.1,0,0.1,0.1,0.2,0.1
	c0.2,0.1,0.3,0.2,0.5,0.3c-2.6-0.9-5.1-1.9-7.6-3c-0.1,0-0.1-0.1-0.2-0.1c-4.1-1.7-6.7-3.1-7.4-3.4c-0.1-0.1-0.2-0.1-0.2-0.1
	s0,0,0,0c-10.1,15.9-23.6,29.7-40.4,40.1c0,0-0.1,0-0.1,0.1c-4.4,3-8.9,5.5-13.3,7.2c10.5-7.8,18.9-17.8,23.7-30
	c4.5-11.4,5.5-23.5,4.1-35.5c-0.3-2.5-0.7-5-1.2-7.5c-1-4.9-2.3-9.7-3.9-14.5c-0.6-1.7-1.2-3.4-1.8-5c-0.4-1.1-0.8-2.1-1.2-3.2
	c-3.2-8-7.2-15.7-11.5-23C86.8,83.4,46.9,46.8,0,28.6V-0.1c0,0,0.1,0,0.1,0.1c28.5,12.7,51.5,34,71.3,57.8
	c13,15.6,27.5,35.5,49.6,37.6c4.8,0.4,9.5,0.1,14-0.9c2-0.4,3.9-1,5.9-1.7c0.2-0.1,0.4-0.1,0.6-0.2c5.5-2,10.9-5,15.9-8.7
	c0.5-0.3,0.9-0.7,1.4-1.1c0.8-0.6,1.6-1.2,2.3-1.8l0,0c0.6-0.5,1.2-1,1.8-1.6c0.3-0.2,0.5-0.4,0.8-0.7c0.5-0.5,1-0.9,1.6-1.4
	c1.1-1.1,2.3-2.2,3.4-3.3c0.7-0.7,1.4-1.4,2.1-2.2c1.1-1.2,2.2-2.4,3.2-3.6c0.6-0.8,1.3-1.5,1.9-2.3c3.1-3.8,6.1-7.8,9-11.9
	c0.5-0.7,0.9-1.3,1.4-2c1-1.5,2-3.1,3-4.7c9.6-15.3,17.3-32.2,22.7-47.4h33.5c-2.4,9.2-2.5,18.4,2,26.8
	c8.4,15.6,28.8,19.7,46.5,19.5c16.5-0.2,33.2,0.7,49.8,0.6c0.2,0,0.4,0,0.6,0C351.1,70.9,348.5,89.1,347.4,97.6z"/>
<path class="st2" d="M104.4,245.7C92,255,76.7,260.9,61.3,263.2c-16.3,2.4-40.7,2.7-61.3-1.6v-13.8c0,0,0.1,0.1,0.3,0.1
	c0.3,0.1,0.7,0.3,1.3,0.5c0.1,0,0.2,0.1,0.3,0.1C11.4,252,53.5,265.1,104.4,245.7z"/>
<g class="st3">
	<path class="st4" d="M111.1,168.4c0,2.9-0.5,5.9-1.5,8.7c-0.3,1-0.7,1.9-1.2,2.9c-0.3,0.6-0.6,1.2-1,1.9c-0.2,0.4-0.5,0.8-0.8,1.3
		c-1.4,2.1-3,4.1-5,6c0,0,0,0,0,0c-3.8,3.7-8.6,6.8-14.2,9.4c-0.4,0.2-0.8,0.3-1.1,0.5c-2.8,1.2-5.8,2.3-8.9,3.3
		c-0.8,0.2-1.6,0.5-2.4,0.7c-1.6,0.4-3.2,0.8-4.9,1.2c-3.1,0.7-6.3,1.2-9.5,1.7c-0.1,0-0.2,0-0.3,0c-0.6,0.1-1.3,0.2-1.9,0.2
		c-0.8,0.1-1.6,0.2-2.5,0.3c-1.4,0.1-2.9,0.3-4.4,0.4c0,0-0.1,0-0.1,0c-0.7,0-1.5,0.1-2.2,0.1c-1.5,0.1-3.1,0.1-4.7,0.1
		c-13.5,0.2-28.1-1.4-42.8-5c-0.6-0.1-1.2-0.3-1.8-0.4v-40.2c-0.2-0.2-0.2-0.6,0-0.7v-25.2c-0.2,0-0.3,0-0.5,0
		c0.2,0,0.3-0.1,0.5-0.1v-32.6c11.2,0.4,22.9,2,34.8,4.9c36.4,8.8,63.9,27.5,73.1,47c1.1,2.4,2,4.9,2.5,7.3c0.2,0.9,0.4,1.9,0.5,2.8
		c0.1,0.4,0.1,0.7,0.1,1.1C111.1,166.7,111.1,167.6,111.1,168.4z"/>
	<g class="st5">
		<path class="st6" d="M68.7,157.6c-0.4,1.5-1.6,2.7-3.4,3.8c-0.2,0.1-0.5,0.3-0.8,0.4c0,0,0,0,0,0c-0.3,0.1-0.6,0.3-0.9,0.4
			c-0.3,0.1-0.6,0.3-1,0.4c-0.3,0.1-0.5,0.2-0.8,0.3c-0.1,0-0.2,0.1-0.2,0.1c-0.3,0.1-0.7,0.2-1,0.3c-0.8,0.2-1.5,0.4-2.4,0.6
			c-0.4,0.1-0.8,0.2-1.3,0.2c0,0-0.1,0-0.2,0c-0.4,0.1-0.8,0.1-1.2,0.2c-0.5,0.1-0.9,0.1-1.4,0.2c-0.5,0.1-1,0.1-1.4,0.2
			c0,0,0,0,0,0c-0.5,0.1-1,0.1-1.5,0.1c-1.3,0.1-2.8,0.2-4.2,0.2c-0.3,0-0.7,0-1,0c-2.7,0-5.6-0.1-8.6-0.2c-1.7-0.1-3.5-0.3-5.3-0.5
			c-0.4,0-0.8-0.1-1.3-0.1c-2.5-0.3-5-0.6-7.6-1.1c-2-0.3-4-0.7-6-1.1c-0.8-0.2-1.6-0.3-2.4-0.5l0,0c-0.7-0.1-1.4-0.3-2-0.5h0
			c-0.4-0.1-0.8-0.2-1.2-0.3c-1.9-0.5-3.8-1-5.6-1.5c-0.1,0-0.1,0-0.2-0.1c-0.6-0.2-1.1-0.3-1.7-0.5c-0.3-0.1-0.5-0.1-0.8-0.2
			c-1.1-0.3-2.2-0.7-3.2-1c0,0-0.1,0-0.1,0v-21.8c-0.2,0-0.3,0-0.5,0c0.2,0,0.3-0.1,0.5-0.1v-6.8c1.3,0,2.7,0,4.1,0.1
			c6.4,0.3,13.7,1.2,21.8,3C51.9,137.4,71,149.7,68.7,157.6z"/>
		<path class="st7" d="M65.3,161.3c-0.2,0.1-0.5,0.3-0.8,0.4c0,0,0,0,0,0c-0.3,0.1-0.6,0.3-0.9,0.4c-0.3,0.1-0.6,0.3-1,0.4
			c-0.3,0.1-0.5,0.2-0.8,0.3c-0.1,0-0.2,0.1-0.2,0.1c-0.3,0.1-0.7,0.2-1,0.3c-0.8,0.2-1.5,0.4-2.4,0.6c-0.4,0.1-0.8,0.2-1.3,0.2
			c0,0-0.1,0-0.2,0c-0.4,0.1-0.8,0.1-1.2,0.2c-0.5,0.1-0.9,0.1-1.4,0.2c-0.5,0.1-1,0.1-1.4,0.2c0,0,0,0,0,0c-0.5,0.1-1,0.1-1.5,0.1
			c-1.3,0.1-2.8,0.2-4.2,0.2c-0.3,0-0.7,0-1,0c-2.7,0-5.6-0.1-8.6-0.2c-1.7-0.1-3.5-0.3-5.3-0.5c-0.4,0-0.8-0.1-1.3-0.1
			c-2.5-0.3-5-0.6-7.6-1.1c-2-0.3-4-0.7-6-1.1c-0.8-0.2-1.6-0.3-2.4-0.5l0,0c-0.7-0.1-1.4-0.3-2-0.5c-0.4-0.1-0.8-0.2-1.2-0.3
			c-1.9-0.5-3.8-1-5.6-1.5c-0.1,0-0.1,0-0.2-0.1c-0.6-0.2-1.1-0.3-1.7-0.5c-0.3-0.1-0.5-0.1-0.8-0.2c-1.1-0.3-2.2-0.7-3.2-1
			c0,0-0.1,0-0.1,0v-21.8c1.5,0.1,2.9,0.2,4.5,0.3c3.9,0.3,8.1,0.9,12.3,1.7c2.5,0.4,5,1,7.5,1.6c0.9,0.2,1.8,0.4,2.7,0.7
			c0,0,0,0,0,0c1.9,0.5,3.8,1,5.6,1.6h0c1.7,0.5,3.3,1,4.9,1.6c0,0,0,0,0,0C53.2,148.2,64.1,155.4,65.3,161.3z"/>
	</g>
	<path class="st8" d="M170.3,76.1c0,0-3.3,12.3,4.3,22.1c7.6,9.8-5.7,16.6-9.5,15.6c-3.8-1,1.5,10.5,18.8,4.3s18.1-37.2,11.9-43.9
		C189.6,67.6,170.3,76.1,170.3,76.1z"/>
	<path class="st9" d="M169.9,77.9c-0.6,3.7-3.6,8.6,4.6,20.3c7.1,10.1-5.7,16.6-9.5,15.6c-3.8-1,1.5,10.5,18.8,4.3
		c7.4-2.6,11.8-9.8,13.9-17.7c-6.7,13.1-15.4,4.8-15.9,3.2c-0.7-2.2-3.6-4.4-6.7-9.9s-3.5-12.3-3.5-12.3L169.9,77.9z"/>
	<path class="st4" d="M87.8,188.7c0,0,50,7.9,65-34.8s-8.3-61.3,14.5-72.6c0,0-0.4,4,7.6,0.9c8-3.1,17.4-0.9,22.3,1.5
		c4.9,2.4,8.9-18.9-0.9-30.2s-38.6-26.8-55.2-2.1c-16.6,24.7,1.3,46-8,82S91.7,149,91.7,149S57,170.2,87.8,188.7z"/>
	<path class="st10" d="M191.1,83.7c0,0-9.6-1.6-11.2,2.5s7.2,8.2,8.2,14.2s-4.1,11.5-7.3,13.7c-3.2,2.2,1.4,5.7,7.3,1.5
		c7-5,10.3-13.6,10.2-18.5c-0.2-4.9-3-7.4-4.6-9.6C192.1,85.4,191.1,83.7,191.1,83.7z"/>
	<path class="st11" d="M178,71.3c-0.9,2.7-4.3,4.2-7.5,3.4c-3.2-0.8-5.1-3.6-4.1-6.3c0.9-2.7,4.3-4.2,7.5-3.4
		C177.1,65.8,178.9,68.6,178,71.3z"/>
	<path class="st9" d="M174.8,70.5c-0.4,1.2-1.9,1.9-3.4,1.5s-2.3-1.6-1.9-2.8s1.9-1.9,3.4-1.5C174.4,68.1,175.2,69.3,174.8,70.5z"/>
	<path class="st12" d="M175,98.9c-0.1-0.2-0.3-0.5-0.4-0.7c-0.2-0.2-0.4-0.5-0.6-0.8c0,0,0,0,0,0c0,0,0,0,0-0.1
		c-0.1-0.2-0.2-0.3-0.4-0.5c-0.2-0.3-0.4-0.7-0.6-1c-0.1-0.1-0.2-0.3-0.2-0.4c-0.1-0.1-0.2-0.3-0.2-0.4c0,0,0,0,0,0c0,0,0,0,0,0
		c0,0,0-0.1,0-0.1v0c-3.1-5.3-3.7-9-3.5-11.8h0c0,0,0,0-0.1,0c0,0,0,0,0,0c-0.1,0-0.1,0-0.2-0.1c-0.1,0-0.1,0-0.2-0.1
		c-0.2-0.1-0.4-0.2-0.6-0.4c-0.1-0.1-0.1-0.1-0.1-0.2c-0.1-0.1-0.1-0.1-0.1-0.2c0,0,0,0,0-0.1v0c-0.1-0.1-0.1-0.2-0.1-0.3
		s-0.1-0.2-0.1-0.3c-0.1-0.3,0-0.5,0-0.5c-0.4,0.2-0.7,0.3-1,0.5c-0.3,0.1-0.5,0.3-0.8,0.4c-0.2,0.1-0.4,0.2-0.6,0.4
		c-0.4,0.2-0.8,0.5-1.2,0.8c-0.4,0.3-0.8,0.6-1.2,0.9c-0.4,0.3-0.7,0.6-1,0.9c-0.2,0.2-0.3,0.3-0.5,0.5c-0.3,0.3-0.6,0.6-0.8,0.9
		c-0.1,0.2-0.2,0.3-0.4,0.5c-0.1,0.1-0.1,0.2-0.2,0.2c-0.1,0.1-0.1,0.2-0.2,0.2c-0.1,0.2-0.2,0.3-0.3,0.5c-0.1,0.2-0.2,0.3-0.3,0.5
		c-0.1,0.2-0.2,0.3-0.3,0.5c-0.1,0.2-0.2,0.3-0.3,0.5c-0.1,0.2-0.2,0.3-0.2,0.5c0,0,0,0,0,0c-0.1,0.2-0.1,0.3-0.2,0.5
		c-0.1,0.1-0.1,0.2-0.1,0.4c-0.1,0.2-0.1,0.3-0.1,0.5c0,0.1-0.1,0.2-0.1,0.3c-0.1,0.2-0.1,0.4-0.2,0.6c-0.1,0.2-0.1,0.4-0.2,0.7
		c-0.1,0.3-0.1,0.6-0.2,0.9c-0.1,0.4-0.1,0.8-0.2,1.2c0,0.1,0,0.2,0,0.3c0,0,0,0.1,0,0.1v0c0,0.2,0,0.4-0.1,0.7c0,0.1,0,0.1,0,0.2
		c0,0.3,0,0.6,0,0.9c-0.2,6.6,1.6,14.9,1.6,25.7c0,0.6,0,1.2,0,1.8c0,0.5,0,1,0,1.5c0,0.5,0,1-0.1,1.5c0,0.8-0.1,1.5-0.1,2.3
		c0,0.4-0.1,0.7-0.1,1.1c-0.1,0.6-0.1,1.1-0.2,1.7c-0.1,0.6-0.1,1.3-0.2,1.9c-0.1,0.4-0.1,0.7-0.1,1.1c-0.1,0.4-0.1,0.7-0.2,1.1
		c0,0.2-0.1,0.4-0.1,0.7c-0.1,0.5-0.2,1-0.2,1.4c0,0,0,0.1,0,0.1c0,0,0,0,0,0c0,0,0,0,0,0v0c-0.1,0.6-0.2,1.2-0.4,1.8
		c-0.1,0.4-0.2,0.8-0.3,1.2c-0.1,0.4-0.1,0.7-0.2,1.1c-0.2,0.7-0.3,1.4-0.5,2.1c-0.1,0.6-0.3,1.2-0.5,1.8c-0.1,0.5-0.3,1-0.4,1.4
		c-0.1,0.2-0.1,0.4-0.2,0.5c-0.1,0.5-0.3,1-0.5,1.5c-0.1,0.4-0.3,0.9-0.4,1.3c-0.2,0.6-0.4,1.2-0.6,1.8c-0.2,0.5-0.4,1-0.5,1.4
		c-0.2,0.5-0.4,0.9-0.6,1.4c-0.2,0.5-0.4,0.9-0.6,1.4c-0.2,0.4-0.4,0.8-0.6,1.2c-0.7,1.6-1.5,3.1-2.4,4.5c0,0.1-0.1,0.1-0.1,0.2
		c-0.1,0.2-0.2,0.4-0.4,0.6c-0.3,0.4-0.5,0.9-0.8,1.3c-0.2,0.3-0.4,0.6-0.6,0.9c-0.2,0.3-0.4,0.6-0.6,0.8c0,0.1-0.1,0.1-0.1,0.2
		c-0.2,0.3-0.4,0.6-0.7,0.9c-0.2,0.3-0.4,0.5-0.6,0.8c-0.2,0.2-0.3,0.4-0.5,0.6c0,0,0,0,0,0.1c-0.2,0.2-0.3,0.4-0.5,0.6
		c-0.1,0.2-0.3,0.3-0.4,0.5c-0.2,0.2-0.4,0.5-0.6,0.7c-2.1,2.3-4.3,4.2-6.6,5.9c-0.2,0.1-0.4,0.3-0.5,0.4c0,0,0,0-0.1,0.1
		c-0.2,0.2-0.4,0.3-0.7,0.5c-0.3,0.2-0.6,0.4-1,0.6c-0.4,0.3-0.8,0.5-1.2,0.8c-0.1,0.1-0.3,0.2-0.4,0.3c-0.1,0.1-0.1,0.1-0.2,0.1
		c-0.1,0.1-0.1,0.1-0.2,0.1c-0.4,0.2-0.8,0.5-1.2,0.7c-0.5,0.3-1,0.5-1.5,0.8c-0.3,0.2-0.6,0.3-0.9,0.5c-1.1,0.5-2.1,1-3.2,1.4
		c-0.3,0.1-0.7,0.3-1,0.4c-0.4,0.2-0.8,0.3-1.3,0.5c-0.3,0.1-0.6,0.2-0.9,0.3c-0.3,0.1-0.6,0.2-0.9,0.3c-0.3,0.1-0.7,0.2-1,0.3
		c-0.6,0.2-1.2,0.4-1.8,0.5c-0.3,0.1-0.6,0.2-0.9,0.2c-0.8,0.2-1.5,0.4-2.3,0.6c-0.2,0-0.3,0.1-0.4,0.1c-0.8,0.2-1.7,0.4-2.5,0.5
		c0,0-0.1,0-0.1,0c-0.6,0.1-1.2,0.2-1.7,0.3c0,0,0,0-0.1,0c-0.3,0.1-0.7,0.1-1.1,0.2c-0.7,0.1-1.4,0.2-2.1,0.3
		c-1.7,0.2-3.3,0.3-4.9,0.4h0v0h0c-3.8,3.6-8.6,6.8-14.2,9.4c-0.4,0.2-0.8,0.3-1.1,0.5c-2.8,1.2-5.8,2.3-8.9,3.3
		c-0.8,0.2-1.6,0.5-2.4,0.7c-1.6,0.4-3.2,0.8-4.9,1.2c-3.1,0.7-6.3,1.2-9.5,1.7c-0.1,0-0.2,0-0.3,0c-0.6,0.1-1.3,0.2-1.9,0.2
		c-0.8,0.1-1.6,0.2-2.5,0.3c-1.4,0.1-2.9,0.3-4.4,0.4c0,0-0.1,0-0.1,0c-0.7,0-1.5,0.1-2.2,0.1c-1.5,0.1-3.1,0.1-4.7,0.1
		c-13.5,0.2-28.1-1.4-42.8-5c-0.6-0.1-1.2-0.3-1.8-0.4v-4.4c5.2,1.4,10.3,2.6,15.4,3.4c5.4,0.9,10.7,1.4,15.9,1.6c3,0.1,6,0.1,9,0
		c0,0,0,0,0,0c19.1-0.6,36.3-5.5,48.9-13.3c3-1.9,5.7-3.9,8.1-6c0,0,0.4,0,1.1,0c0,0,0,0,0,0c0.9,0,2.4-0.1,4.3-0.3
		c1.4-0.1,3-0.4,4.8-0.7c3.2-0.6,7-1.4,11-2.8c0,0,0,0,0,0c4.2-1.5,8.5-3.5,12.6-6.3c3.6-2.5,7.1-5.5,10-9.4
		c15.2-19.9,13.6-45,12.7-57.5c-0.5-7.7-0.3-14.2,2.6-19.5c0,0,0,0,0,0c0.7-1.2,1.5-2.4,2.4-3.5c0.7-0.8,1.6-1.6,2.5-2.4
		c0.5-0.4,1-0.8,1.6-1.1c0.3-0.2,0.6-0.4,0.9-0.6c0.5-0.3,1-0.6,1.6-0.9c0,0,1.1,1.9,4,3.2c0.1,0,0.2,0.1,0.4,0.2
		c0.6,0.2,1.3,0.5,2.1,0.7c1,0.2,2.1,0.4,3.3,0.4c0,0-0.1,0.3-0.2,0.9c-0.3,1.5-0.9,4.5-0.8,8.2v0c0,2.3,0.3,4.8,1,7.4
		C175,98.8,175,98.8,175,98.9C175,98.9,175,98.9,175,98.9z"/>
	<path class="st12" d="M49.7,186.4c0.1,5.3-5.2,10.8-13.5,14.1c-0.4,0.2-0.8,0.3-1.3,0.5c-1.2,0.4-2.4,0.8-3.6,1.1
		c-8.7,2.3-19.7,2.5-31.3-1.2v-38.4c1.3-0.4,2.8-0.7,4.5-0.9c2.4-0.4,5.1-0.6,8.2-0.7h0c2,0,4.1,0,6.3,0.2c3.9,0.3,7.6,1.1,10.9,2.3
		c0.7,0.3,1.4,0.5,2.1,0.8c7,3,12.4,7.7,15.2,13.2C48.8,180.3,49.7,183.3,49.7,186.4z"/>
	<path class="st4" d="M48.3,183.1c0.1,8.8-14.1,17.9-32.9,17.4c-4.9-0.1-10.1-0.8-15.4-2.4v-36.8c-0.2-0.2-0.2-0.6,0-0.7V159
		c1-0.2,2.1-0.4,3.3-0.6c3.9-0.6,8.7-0.9,14.4-0.5c7.7,0.6,14.5,3.2,19.7,6.9c4.9,3.4,8.3,7.9,10,12.7
		C48,179.3,48.3,181.2,48.3,183.1z"/>
	<path class="st11" d="M92.5,180.4c-0.4-0.8-1.3-1-2-0.3c-0.6,0.5,0,2,0.6,1.6c0,0,0,0,0,0c0.5-0.3,1-0.1,1.4-0.5
		C92.7,181,92.6,180.6,92.5,180.4z"/>
	<g class="st13">
		<path class="st14" d="M33.6,113.4c-1.7-0.5-3.4-0.8-5.1-1.2c-2.5-0.3-5-0.6-7.6-0.9c-0.4-0.1-0.6-0.6-0.7-1.1
			c-0.2,0-0.4-0.1-0.5-0.1c0.2,0.6,0.2,1.4-0.4,1.4c-5-0.1-10.1-0.2-15.1-0.4c-0.3,0-0.5-0.2-0.6-0.4c-1.2-0.1-2.4-0.1-3.6-0.2v-3
			c0.2,0,0.4,0,0.6-0.1c-0.2,0-0.4,0-0.6,0v-1c3.1,0,6.1,0.1,9.2,0.2c0.2,0,0.4,0.2,0.5,0.4c6.2-0.2,15,1.9,18.6,3
			c1.8,0.4,3.6,0.8,5.4,1.4C34.5,111.6,34.6,113.7,33.6,113.4z"/>
		<path class="st14" d="M64.2,121.4c-0.9-0.3-1.8-0.7-2.5-1.1c-0.1-0.2-0.2-0.4-0.3-0.4c-1.4-0.9-2.8-1.8-4.1-2.7
			c-0.7-0.5-0.9,0.3-0.9,1.1c-1.1-0.4-2.3-0.7-3.5-1c-0.3-0.1-0.5,0.1-0.6,0.4c-1.3-0.4-2.6-0.7-3.9-0.6c-0.1,0,0,0.2,0,0.2
			c0.8,0.6,1.9,1.2,3,1.7c0,0.1,0,0.2,0,0.3c0,0.8,0,1.4,0.7,2c0.4,0.4,0.7,0,0.7-0.3c3.9,0.9,7.7,1.9,11.5,3
			C65.4,124.2,65.2,121.8,64.2,121.4z"/>
		<path class="st14" d="M31.9,167.5c-3-1.9-5.8-3.4-8.7-4.4c-2.5-0.9-5.2-1.5-8.4-1.6l0,0c-0.2,0-0.4,0-0.6,0
			c-3.2-0.1-6.5,0.2-9.7,0.3c-1.5,0-2.9,0-4.4-0.2c-0.1,0-0.1,0-0.2-0.1c-0.2-0.2-0.2-0.6,0-0.7l0,0c1.8-0.6,3.8-1.1,5.9-1.5
			c8.2-1.3,18.2-0.2,24.1,4.3c0.3,0.2,0.6,0.4,0.8,0.7c0.6,0.5,1.1,1.1,1.6,1.7C32.7,166.2,32.9,168.2,31.9,167.5z"/>
		<path class="st14" d="M41.5,176.3c-0.3-1.1-0.8-2.5-1.9-3.2c-0.7-0.4-0.7,0.8-0.6,1.1c0.3,0.9,0.8,1.7,1,2.6
			c0.2,0.9,0.2,1.8,0.3,2.7c0,0.5,0.8,1.4,1.2,0.6C42,178.9,41.8,177.6,41.5,176.3z"/>
		<path class="st14" d="M42.4,187.6c0-0.2,0-0.4,0-0.6c0-0.1,0-0.1-0.1-0.2c-0.1-0.1-0.1-0.2,0-0.1c0-0.1-0.2-0.5-0.3-0.3
			c-0.1,0.1-0.3,0.1-0.4,0.3c-0.1,0.1-0.2,0.4-0.3,0.6c-0.2,0.4-0.3,0.8-0.3,1.2c0,0.4,0.6,1.5,1,0.7
			C42.3,188.8,42.3,188.2,42.4,187.6z"/>
		<path class="st14" d="M78.1,183.5c-0.4,0-1.5,0.3-2.9,0.7c0.2-0.7-0.2-2-1.1-1.7c-4.6,1.7-9.5,2.9-14.5,3.7c-0.1,0,0,0.2,0,0.2
			c0.3,0,0.5,0,0.8,0c-0.4,0.1-0.9,0.1-1.3,0.2c-0.2,0-0.4,0.3-0.5,0.4c-0.7,2.1,0.6,3.4,3.2,3.1c3-0.4,6.1-1.6,9-2.3
			c2.6-0.7,5.4-1.2,7.8-2.3C79.2,185.1,78.9,183.4,78.1,183.5z"/>
		<path class="st14" d="M89.8,140.2c-2.7-2.4-4.9-4.7-8.6-6.2c-0.1-0.1-0.2,0.1-0.2,0.2c-0.3-0.1-0.7-0.2-1.1-0.3
			c-0.8-0.1-0.6,1.2-0.3,1.5c1.3,1.2,3.2,2.1,4.8,3.1c1.7,1.1,3.4,2.3,4.9,3.6C90.3,142.9,90.4,140.7,89.8,140.2z"/>
		<path class="st14" d="M193.9,59.6c-4.2-5.1-9.7-10.4-16.9-12.5c-0.1-0.2-0.2-0.4-0.3-0.5c-6.1-4-13.6-4.2-19.9-0.4
			c-0.2,0.1-0.3,0.3-0.4,0.6c-1.2,0.7-2.2,1.5-3.1,2.6c-0.2,0.3-0.1,1.2,0.1,1.8c-0.1,0.2-0.2,0.3-0.2,0.4c0,0,0,0.2,0.1,0.1
			c0.1-0.1,0.2-0.2,0.3-0.3c0.2,0.3,0.5,0.5,0.8,0.2c5.4-4.2,14.4-3.9,21.3-2.5c8.1,1.7,11.5,7.8,17.9,11.5
			C194.3,61.2,194.1,59.8,193.9,59.6z"/>
		<path class="st14" d="M145.3,120.7c0.8-5.9,0.5-11.9-1.2-17.8c-0.1-0.5-0.6-0.2-0.5,0.2c0.6,3.2,0.8,6.3,0.9,9.3
			c-0.1-0.5-0.3-1.1-0.4-1.6c-0.8-10.1-4.5-21-1.8-30.8c0.1-0.2-0.3-0.8-0.4-0.4c-2,4.3-1.3,8.7-0.8,13.2c0.5,4.8,0.9,9.6,1.6,14.4
			c-0.3-0.1-0.6,0.2-0.5,0.8c1.2,6.3,1.6,12.3,0.8,18.1c-1.2,4.8-3.2,9.6-5.6,14.3c0,0,0,0-0.1,0c0.4-0.8,0.8-1.7,1.1-2.5
			c0.1-0.2-0.2-1.4-0.6-0.9c-5.1,5.9-8.1,12.6-13.9,18.2c-1.5,1.4-3.1,2.7-4.7,3.9c-4.8,2.4-10.2,3.8-16.1,3.4
			c-0.4,0-0.2,0.8,0.1,0.9c2.4,0.6,4.8,0.7,7.2,0.5c-2.3,1-4.8,1.8-7.4,2.4c-0.6-0.1-1.2-0.1-1.9-0.3c-1.2-0.2-1.1,2.4,0,2.6
			c16,3,26.4-8.5,33.2-19.1c2-2.3,3.7-4.7,5-6.9C142.7,136,145.1,128.3,145.3,120.7z M103.4,166.4c4.9-0.5,9.4-2,13.5-4.2
			c2.6-1,5.1-2.4,7.5-4C118.9,163.4,112.1,167.1,103.4,166.4z"/>
	</g>
	<path class="st12" d="M52.9,143.8c-5.7-3.9-13.4-6.1-20.3-8.2c-6-1.8-13.2-4.7-19.9-4.6c0.1,0.4,0.1,0.9-0.3,0.9
		c-3.5-0.2-6.8-0.2-10.2,0.1c0,0.3-0.1,0.6-0.4,0.6c-0.6,0-1.1,0-1.8,0v-1.9c2.1-0.2,4.3-0.4,6.4-0.4c-2.1-0.5-4.2-0.8-6.4-1v-1
		c0.1,0.1,0.1,0.2,0,0.3c1.4,0,2.7,0.1,4,0.2c2.8,0.3,5.4,0.8,8.2,1.7c0.1,0,0.2,0.1,0.2,0.2c7.2-0.9,15,2,21.7,3.9
		c6.6,1.9,14.5,3.5,19,8.2C53.4,143,53.4,144.2,52.9,143.8z"/>
	<path class="st12" d="M16,136.9c-3.1-0.1-6.1-0.9-9.1-1.1c-0.8-0.1-1.6-0.1-2.5-0.1c-1.5,0-3,0-4.5,0.1v-0.4c-0.2,0-0.3,0-0.5,0
		c0.2,0,0.3-0.1,0.5-0.1c1-0.1,2.1-0.3,3.2-0.4c-1.1,0-2.1-0.1-3.2-0.2v-1c1.1,0.1,2.2,0.3,3.2,0.7c0.2,0.1,0.3,0.5,0.1,0.5
		c4.4-0.4,9-0.3,12.7,1.2C16.2,136.3,16.4,136.9,16,136.9z"/>
	<path class="st12" d="M27.5,139.9c-4.3-1.8-9.3-2.3-14-2.8c-0.2,0-0.2,0.5,0,0.5c4.6,0.9,9.2,2.5,14,2.9
		C27.9,140.6,27.8,140,27.5,139.9z"/>
	<path class="st12" d="M46.2,144c-4-2.9-10.7-3-15.7-2.6c-0.3,0-0.2,0.7,0.1,0.7c3.1,0.1,6.1,0.5,9,1.2c2.2,0.5,4.3,1.4,6.5,1.6
		C46.6,144.9,46.4,144.1,46.2,144z"/>
	<g class="st5">
		<path class="st6" d="M92.8,188.3c-0.1,0.1-0.2,0.1-0.3,0.2C92.5,188.5,92.6,188.4,92.8,188.3z"/>
		<path class="st6" d="M121.3,178.3c-7.7,2.1-11.7,1.9-19.8,1.2c-4.1-0.4-3.2-0.7-6.1,1.2c-2.4,1.6-4.1,5.7-7.4,7.7
			c-2.7,1.6-5.9,2.9-8.9,4.1c-5.9,2.5-11.9,4.7-18.1,6.8c-8.8,1.6-17.6,2.5-27.7,0.7c-0.2,0-0.2,0.4,0,0.5
			c16.8,5.2,35.5,1.1,51.8-3.8c0.8-0.2,0.6-2.2-0.3-2c-2.2,0.3-4.4,0.7-6.6,1.1c5.6-2,10.7-4.4,14.2-7.4c-0.6,0.4,6-6.1,3.8-4.7
			c3.8-2.6,6.8-1,10.9-0.7c5.3,0.4,10.3-0.5,14.5-3.3C122.1,179.6,122,178.1,121.3,178.3z"/>
	</g>
	<path class="st12" d="M175.8,80.7c-1.2-0.1-2.3-0.3-3.4-0.6c-3.9-0.8-7.2-2.5-9.9-4.9c-0.6-0.7-1.2-1.4-1.7-2.3
		c-0.2-0.3-0.4-0.2-0.4,0c-0.2-0.2-0.4-0.4-0.5-0.6c-0.5-0.6-0.8-0.3-1,0.3c-1.1-0.8-1.3,1.5-0.7,2.2c0.2,1.6,0.4,3.2,0.6,4.7
		c-0.7,3-2,5.7-3.3,8.8c-0.8,2-1,3.8,0.2,5.6c0.4,0.7,0.9,0,0.8-0.5c-0.8-3.2,2.5-6.8,3.5-9.8c0.1-0.3,0.1-0.5,0.2-0.8
		c0-0.1,0.1-0.1,0.1-0.2l0,0l0,0c1-1.5,1.5-3.2,1.4-4.8c0,0,0,0,0.1,0.1c2.4,2.8,5.5,5.1,9.9,4.6c1.3,0.3,2.6,0.5,4,0.7
		c0.1,0,0.2,0,0.3,0v0c0.1,0,0.1,0,0.2,0C177,83.3,176.8,80.8,175.8,80.7z"/>
	<path class="st12" d="M201.1,78.6c0-0.1,0-0.2,0-0.3c0-0.4-0.6-1.7-1.1-0.8c-0.5,0.9-1,1.9-1.5,2.8c-0.1,0.1-0.2,0.2-0.3,0.3
		c-0.8,0.6-1.7,0.9-2.3,1.6c0,0,0,0.1,0,0.2c-0.4,0.4-0.2,1.8,0.5,1.6c0.4-0.1,0.7-0.2,1-0.3c0.2,0.5,0.6,0.9,1,0.3
		c0.2-0.4,0.5-0.9,0.7-1.3c0.9-0.7,1.5-1.7,1.8-2.7c0.1-0.1,0.2-0.2,0.2-0.3C201.3,79.3,201.3,78.9,201.1,78.6z"/>
	<path class="st12" d="M32.7,186.8c-9.4,6.1-21.6,6.5-32.7,3.5v-2.2c2.2,0.4,4.4,0.7,6.7,0.9c9.5,0.6,16.6-2,25.5-4.1
		C33,184.7,33.2,186.5,32.7,186.8z"/>
	<path class="st12" d="M27.5,176.8c-8.8,4.6-18.2,5.2-27.5,3.3v-1.5c2.9,0.4,5.8,0.7,8.8,0.7c6.9,0.1,12.1-1.9,17.9-4.9
		C27.7,173.8,28.5,176.3,27.5,176.8z"/>
	<path class="st12" d="M14.7,167.6c-1.6,2.2-5.7,3.2-8.6,3.9c-2,0.5-4.2,0.9-6.1,0.6v-2c2-0.2,4-0.4,6.1-1.2c1.7-0.6,3.3-1.2,4.8-2
		c1.1-0.5,1.9-1.2,3.2-1.2C14.9,165.9,15,167.2,14.7,167.6z"/>
</g>
<path class="st1" d="M0,135.4L0,135.4c-0.2,0.1-0.3,0.1-0.5,0.1C-0.3,135.5-0.2,135.4,0,135.4z"/>
<path class="st1" d="M0,160.7v0.7C-0.2,161.2-0.2,160.8,0,160.7z"/>
</svg>
