<?xml version="1.0" encoding="utf-8"?>
<!-- Generator: Adobe Illustrator 26.0.1, SVG Export Plug-In . SVG Version: 6.00 Build 0)  -->
<svg version="1.1" xmlns="http://www.w3.org/2000/svg" xmlns:xlink="http://www.w3.org/1999/xlink" x="0px" y="0px"
	 viewBox="0 0 1920 1080" style="enable-background:new 0 0 1920 1080;" xml:space="preserve">
<style type="text/css">
	.st0{display:none;}
	.st1{display:inline;fill:#E7BEBE;}
	.st2{display:inline;}
	.st3{fill:#90B599;}
	.st4{fill:#7AA381;}
	.st5{fill:#9DBDA4;}
	.st6{fill:#A9C7AF;}
	.st7{opacity:0.71;clip-path:url(#SVGID_00000151530667560442963460000010433224653390443664_);}
	.st8{fill:#DB8885;}
	.st9{fill:#FFFFFF;}
	.st10{fill:#E08372;}
	.st11{fill:#F1E9CD;}
	.st12{fill:#E6A59B;}
	.st13{fill:#91C0CA;}
	.st14{fill:#7DB3BA;}
	.st15{fill:#A1CBD4;}
	.st16{fill:#AFD8DE;}
	.st17{clip-path:url(#SVGID_00000005240020509444702620000017750608779001927813_);}
	.st18{fill:#FFC964;}
	.st19{display:inline;fill:#DAEAE0;}
	.st20{display:inline;fill:#F3ED81;}
	.st21{display:inline;fill:#DAEAE0;stroke:#F1E9CD;stroke-width:0.4245;stroke-miterlimit:10;}
	.st22{fill:#E6B4AC;stroke:#E6B4AC;stroke-width:0.6565;stroke-miterlimit:10;}
	.st23{fill:#E7BEBE;}
	.st24{display:inline;fill:#E6B4AC;stroke:#E6B4AC;stroke-width:0.6565;stroke-miterlimit:10;}
	.st25{fill:#EBEBEB;}
	.st26{fill:#FFD2D2;}
	.st27{fill:#FFE1E1;}
	.st28{fill:#EAE3DE;}
	.st29{fill:#E5A09F;}
	.st30{fill:#574A42;}
	.st31{fill:#FFA695;}
	.st32{display:none;fill:#587A77;}
	.st33{display:inline;fill:#FFFFFF;}
	.st34{fill:#587A77;}
	.st35{display:inline;fill:#587A77;}
	.st36{font-family:'Ranchers-Regular';}
	.st37{font-size:99.4054px;}
	.st38{font-size:143.8655px;}
	.st39{font-family:'AsapCondensed-Medium';}
	.st40{font-size:40.1412px;}
	.st41{display:inline;fill:#673F38;}
	.st42{font-family:'AsapCondensed-Bold';}
	.st43{font-size:62.5252px;}
	.st44{font-size:30.6858px;}
	.st45{display:inline;fill:none;}
	.st46{fill:#673F38;}
	.st47{font-size:27.2198px;}
	.st48{font-size:36.3054px;}
	.st49{font-size:84.7736px;}
</style>
<g id="BACKGROUND" class="st0">
	<rect x="0.04" y="0.12" class="st1" width="1920.75" height="1079.69"/>
</g>
<g id="OBJECTS">
	<g class="st0">
		<g>
			<g class="st2">
				<g>
					<path class="st3" d="M986.03,905.13c-38.28,50.28-89.1,52.92-127.22,23.89c-38.11-29.02-49.09-78.71-10.81-128.99
						c38.28-50.28,111.33-82.1,149.44-53.08C1035.56,775.97,1024.31,854.85,986.03,905.13z"/>
				</g>
				<g>
					<path class="st4" d="M890.9,923.47c-38.11-29.02-49.09-78.71-10.81-128.99c29.86-39.21,72.62-59.7,108.07-53.06
						c-39.75-18.5-104.79,12.16-140.16,58.62c-38.28,50.28-27.31,99.97,10.81,128.99c24.12,18.37,53.33,24.03,81.23,12.99
						C922.73,941.32,905.84,934.84,890.9,923.47z"/>
				</g>
				<g>
					<path class="st5" d="M999.64,863.44c-21.37,29.9-51.35,31.98-74.61,15.35c-23.26-16.63-31-45.67-9.62-75.57
						c21.37-29.9,63.76-49.34,87.02-32.71C1025.69,787.15,1021.02,833.54,999.64,863.44z"/>
				</g>
				<g>
					<path class="st6" d="M987.29,842.89c-12.81-0.96-22.07-16.83-20.68-35.46c1.39-18.63,12.9-32.95,25.72-31.99
						c12.81,0.96,22.07,16.83,20.68,35.46C1011.61,829.52,1000.1,843.85,987.29,842.89z"/>
				</g>
			</g>
			<g class="st2">
				<defs>
					<path id="SVGID_1_" d="M986.03,905.13c-38.28,50.28-89.1,52.92-127.22,23.89c-38.11-29.02-49.09-78.71-10.81-128.99
						c38.28-50.28,111.33-82.1,149.44-53.08C1035.56,775.97,1024.31,854.85,986.03,905.13z"/>
				</defs>
				<clipPath id="SVGID_00000112626748388245172750000005992314692939851170_">
					<use xlink:href="#SVGID_1_"  style="overflow:visible;"/>
				</clipPath>
				<g style="opacity:0.71;clip-path:url(#SVGID_00000112626748388245172750000005992314692939851170_);">
					<g>
						<g>
							<path class="st8" d="M886.32,756.13c0,0,24.44,32.71,68.11,65.44c43.67,32.72,62.89,32.73,62.89,32.73l-10.04,22.49
								l-6.72-15.53l-22.08,7.64l-3.74-24.66l-25.32,8.13l-4.53-27.87l-27.55,6.12l1.88-28.56l-26.68,4.49l1.25-27.33l-23.6,5.05
								l4.84-18.52L886.32,756.13z"/>
						</g>
						<g>
							<polygon class="st9" points="906.75,847.06 907.59,815.96 882.37,822.75 883.79,792.27 857.19,797.87 861.91,780.04 
								863.71,780.52 859.76,795.42 885.77,789.94 884.35,820.28 909.52,813.51 908.68,844.52 938.13,835.56 943.72,866.1 
								966.81,857.03 973.14,884.61 997.21,873.62 1002.65,891.9 1000.86,892.44 996.03,876.21 971.84,887.26 965.47,859.56 
								942.3,868.66 936.67,837.95 							"/>
						</g>
					</g>
					<g>
						<g>
							<path class="st8" d="M839.13,808.74c0,0,26.23,35.11,73.1,70.23c46.86,35.12,67.5,35.13,67.5,35.13l-10.77,24.14l-7.21-16.66
								l-23.7,8.2l-4.02-26.47l-27.18,8.72l-4.86-29.91l-29.56,6.57l2.02-30.65l-28.63,4.82l1.34-29.33l-25.33,5.42l5.2-19.87
								L839.13,808.74z"/>
						</g>
						<g>
							<polygon class="st9" points="861.05,906.33 861.96,872.95 834.89,880.24 836.41,847.53 807.86,853.55 812.93,834.4 
								814.87,834.92 810.63,850.92 838.53,845.03 837.02,877.59 864.03,870.32 863.13,903.61 894.74,893.99 900.74,926.77 
								925.51,917.03 932.31,946.64 958.14,934.84 963.98,954.46 962.06,955.03 956.88,937.62 930.91,949.48 924.08,919.75 
								899.21,929.52 893.17,896.56 							"/>
						</g>
					</g>
				</g>
			</g>
		</g>
		<g>
			<g class="st2">
				<path class="st10" d="M1864.41,985.77c-73.56-104.82-149.94-62.85-101.19,55.45C1800.8,1107.1,1899.72,1052.89,1864.41,985.77z"
					/>
			</g>
			<g class="st2">
				<g>
					<g>
						<path class="st9" d="M1775.04,958.17c4.05,0,7.92-3.56,7.74-7.74c-0.19-4.19-3.4-7.74-7.74-7.74c-4.05,0-7.92,3.56-7.74,7.74
							C1767.49,954.62,1770.7,958.17,1775.04,958.17L1775.04,958.17z"/>
					</g>
				</g>
				<g>
					<g>
						<path class="st9" d="M1766.26,1002.09c4.05,0,7.92-3.56,7.74-7.74c-0.19-4.19-3.4-7.74-7.74-7.74c-4.05,0-7.92,3.56-7.74,7.74
							C1758.71,998.55,1761.92,1002.09,1766.26,1002.09L1766.26,1002.09z"/>
					</g>
				</g>
				<g>
					<g>
						<path class="st9" d="M1816.11,1021.7c4.05,0,7.92-3.56,7.74-7.74c-0.19-4.19-3.4-7.74-7.74-7.74c-4.05,0-7.92,3.56-7.74,7.74
							C1808.57,1018.16,1811.78,1021.7,1816.11,1021.7L1816.11,1021.7z"/>
					</g>
				</g>
				<g>
					<g>
						<path class="st9" d="M1822.69,968.04c4.05,0,7.92-3.56,7.74-7.74c-0.19-4.19-3.4-7.74-7.74-7.74c-4.05,0-7.92,3.56-7.74,7.74
							C1815.14,964.5,1818.35,968.04,1822.69,968.04L1822.69,968.04z"/>
					</g>
				</g>
				<g>
					<g>
						<path class="st9" d="M1794.84,1059.96c4.05,0,7.92-3.56,7.74-7.74c-0.19-4.19-3.4-7.74-7.74-7.74c-4.05,0-7.92,3.56-7.74,7.74
							C1787.29,1056.41,1790.5,1059.96,1794.84,1059.96L1794.84,1059.96z"/>
					</g>
				</g>
				<g>
					<g>
						<path class="st9" d="M1861.24,1029.83c4.05,0,7.92-3.56,7.74-7.74c-0.19-4.19-3.4-7.74-7.74-7.74c-4.05,0-7.92,3.56-7.74,7.74
							C1853.69,1026.28,1856.9,1029.83,1861.24,1029.83L1861.24,1029.83z"/>
					</g>
				</g>
			</g>
		</g>
		<g>
			<g class="st2">
				<g>
					<path class="st11" d="M1738.94,332.84c-14.72-2.57-30.31-11.14-43.08-20.8c-12.76-9.66-22.87-24.12-23.39-40.12
						c13.11-0.87,26.47,2.64,37.46,9.86c-2.53-15.47,0.16-31.76,7.56-45.59c11.62,7.93,20.21,20.18,23.72,33.81
						c3.1-12.97,8.43-25.41,15.68-36.6c6.45,10.55,10.56,22.53,11.93,34.83c11.95-7.1,13.95-25.8,26.84-31
						c5.88,19.51,5.82,41.19-2.54,59.77c-8.36,18.58-25.59,33.51-45.7,36.81"/>
					<g>
						<path class="st11" d="M1739.22,331.81c-12.8-2.28-24.74-8.35-35.48-15.48c-10.14-6.74-19.35-14.79-25.07-25.73
							c-3.03-5.79-4.89-12.15-5.13-18.68c-0.35,0.35-0.71,0.71-1.06,1.06c13-0.82,26.01,2.6,36.92,9.71
							c0.85,0.56,1.69-0.36,1.56-1.2c-2.45-15.24,0.22-31.14,7.45-44.77c-0.48,0.13-0.97,0.25-1.45,0.38
							c11.41,7.85,19.73,19.78,23.23,33.17c0.26,1,1.8,1.02,2.05,0c3.11-12.91,8.38-25.2,15.57-36.35c-0.61,0-1.22,0-1.83,0
							c6.34,10.43,10.4,22.16,11.78,34.29c0.09,0.76,0.84,1.37,1.6,0.92c9.64-5.83,12.41-17.55,19.54-25.63
							c1.96-2.22,4.29-4.12,7.05-5.26c-0.44-0.25-0.87-0.49-1.31-0.74c4.87,16.31,5.69,34.05,0.73,50.45
							c-4.34,14.36-13.37,27.22-25.81,35.7c-6.74,4.59-14.36,7.78-22.41,9.14c-1.34,0.23-0.77,2.27,0.56,2.05
							c14.78-2.48,28.04-11.11,37.35-22.72c10.38-12.95,15.44-29.25,15.77-45.75c0.19-9.95-1.29-19.9-4.13-29.43
							c-0.15-0.5-0.76-0.97-1.31-0.74c-10.58,4.38-13.98,16.33-20.37,24.81c-1.86,2.47-4.06,4.69-6.72,6.29
							c0.53,0.31,1.06,0.61,1.6,0.92c-1.43-12.51-5.53-24.59-12.07-35.36c-0.43-0.7-1.4-0.67-1.83,0
							c-7.29,11.3-12.64,23.79-15.79,36.86c0.68,0,1.36,0,2.05,0c-3.64-13.94-12.34-26.28-24.2-34.44c-0.46-0.32-1.2-0.1-1.45,0.38
							c-7.52,14.17-10.21,30.57-7.66,46.4c0.52-0.4,1.04-0.8,1.56-1.2c-11.2-7.3-24.66-10.84-37.99-10
							c-0.56,0.04-1.08,0.46-1.06,1.06c0.45,12.09,6.12,23.25,14.13,32.12c4.25,4.71,9.19,8.63,14.38,12.26
							c5.59,3.9,11.46,7.43,17.6,10.4c6.71,3.24,13.78,5.85,21.13,7.17C1739.99,334.1,1740.56,332.05,1739.22,331.81L1739.22,331.81
							z"/>
					</g>
				</g>
				<g>
					<g>
						<path class="st9" d="M1706.1,297.81c1.84-0.3,3.34-0.09,4.73,0.28c1.38,0.38,2.62,0.97,3.74,1.73c1.13,0.75,2.13,1.69,3,2.83
							c0.85,1.16,1.6,2.47,2,4.3c-1.85,0.31-3.34,0.1-4.73-0.27c-1.38-0.38-2.62-0.97-3.74-1.74c-1.12-0.76-2.12-1.7-2.99-2.84
							C1707.25,300.94,1706.51,299.63,1706.1,297.81z"/>
					</g>
					<g>
						<path class="st9" d="M1727.99,277.18c2.17,1.14,3.81,2.59,5.28,4.14c1.46,1.56,2.7,3.25,3.77,5.04
							c1.07,1.79,1.96,3.69,2.63,5.72c0.66,2.04,1.15,4.17,1.11,6.62c-2.17-1.13-3.81-2.59-5.29-4.14c-1.46-1.56-2.7-3.25-3.77-5.04
							c-1.06-1.79-1.95-3.7-2.62-5.72C1728.45,281.76,1727.96,279.63,1727.99,277.18z"/>
					</g>
					<g>
						<path class="st9" d="M1757.63,291.11c-1.34-1.77-2.02-3.61-2.46-5.46c-0.42-1.85-0.56-3.72-0.44-5.57
							c0.11-1.85,0.49-3.69,1.15-5.47c0.68-1.78,1.59-3.52,3.15-5.09c0.99,1.99,1.41,3.83,1.68,5.64c0.25,1.81,0.31,3.57,0.19,5.32
							c-0.11,1.75-0.4,3.49-0.88,5.25C1759.5,287.5,1758.85,289.27,1757.63,291.11z"/>
					</g>
					<g>
						<path class="st9" d="M1778.09,292.98c0.05-2.12,0.57-3.86,1.25-5.48c0.69-1.61,1.57-3.07,2.63-4.39
							c1.04-1.33,2.26-2.52,3.67-3.57c1.42-1.03,3-1.94,5.06-2.47c-0.04,2.13-0.57,3.87-1.24,5.49c-0.69,1.61-1.58,3.07-2.63,4.39
							c-1.05,1.33-2.27,2.52-3.67,3.56C1781.71,291.53,1780.14,292.45,1778.09,292.98z"/>
					</g>
				</g>
			</g>
			<g class="st2">
				<path class="st12" d="M1772.69,358.72c6.48-26.48,24.06-50.06,47.59-63.82c5.86-3.43,12.41-6.33,19.18-5.83
					c-4.75,17.1-9.68,34.58-19.89,49.11c-10.21,14.52-26.91,25.77-44.62,24.58"/>
				<g>
					<path class="st12" d="M1774.27,359.16c6.07-24.58,21.68-46.61,42.92-60.42c6.61-4.3,14.12-8.54,22.27-8.02
						c-0.53-0.69-1.06-1.39-1.58-2.08c-7.22,25.98-16.05,55.64-42.37,68.29c-6.4,3.08-13.45,4.63-20.56,4.19
						c-2.11-0.13-2.1,3.15,0,3.28c13.48,0.84,26.3-5.24,36.13-14.13c10.74-9.72,17.53-22.81,22.44-36.26
						c2.93-8.03,5.23-16.27,7.52-24.5c0.3-1.08-0.53-2.01-1.58-2.08c-7.63-0.49-14.79,2.89-21.16,6.74
						c-5.65,3.41-10.96,7.39-15.84,11.82c-9.76,8.85-17.87,19.59-23.7,31.4c-3.29,6.67-5.87,13.68-7.65,20.89
						C1770.6,360.33,1773.76,361.21,1774.27,359.16L1774.27,359.16z"/>
				</g>
			</g>
			<g class="st2">
				<path class="st12" d="M1754.63,366.64c-3.67-8.85-8.95-12.4-17.39-18.05c-20.92-14.02-55.15-18.59-80.05-14.8
					c-1.03,8.59,4.69,16.46,10.79,22.59c5.81,5.84,12.26,11.05,19.19,15.5c7.35,4.72,15.47,8.66,24.18,9.45
					c15.09,1.38,29.23-6.72,42.22-14.54"/>
				<g>
					<path class="st12" d="M1756.21,366.2c-1.34-3.19-3.01-6.14-5.26-8.77c-2.11-2.46-4.65-4.5-7.26-6.4
						c-5.79-4.2-11.84-7.87-18.43-10.67c-13.91-5.89-29.13-8.71-44.17-9.36c-8.13-0.35-16.28-0.01-24.33,1.2
						c-0.76,0.11-1.13,0.92-1.2,1.58c-0.84,7.81,3.39,14.92,8.33,20.6c5.43,6.25,11.97,11.68,18.73,16.41
						c6.74,4.71,14.08,8.95,22.1,11.03c8.04,2.08,16.34,1.46,24.22-1.02c9.07-2.86,17.36-7.71,25.47-12.59
						c1.81-1.09,0.16-3.93-1.66-2.83c-13.07,7.86-28.07,16.75-43.97,13.97c-7.73-1.35-14.8-5.01-21.33-9.25
						c-6.66-4.33-12.85-9.37-18.43-15.02c-5.58-5.65-11.07-12.89-10.17-21.29c-0.4,0.53-0.8,1.06-1.2,1.58
						c13.91-2.09,28.37-1.51,42.18,0.99c7.11,1.29,14.15,3.13,20.91,5.7c6.42,2.43,12.32,5.66,18,9.5c2.99,2.03,5.97,4.1,8.52,6.68
						c2.51,2.54,4.43,5.55,5.81,8.84c0.35,0.82,1.08,1.39,2.02,1.15C1755.83,368.02,1756.55,367.02,1756.21,366.2L1756.21,366.2z"/>
				</g>
			</g>
		</g>
		<g>
			<g class="st2">
				<g>
					<g>
						<path class="st13" d="M1060.84,288.7c16.85,45.37-2.26,79.33-36.65,92.11c-34.39,12.77-71.04-0.48-87.89-45.85
							c-16.85-45.37-7.52-105.67,26.87-118.44C997.56,203.74,1043.99,243.34,1060.84,288.7z"/>
					</g>
					<g>
						<path class="st14" d="M1033.74,357.77c-34.39,12.77-71.04-0.48-87.89-45.85c-13.14-35.38-8.88-71.44,9.94-91.67
							c-28.26,18.14-35.06,72.78-19.49,114.71c16.85,45.37,53.5,58.62,87.89,45.85c21.77-8.08,37.39-24.66,41.68-47.24
							C1058.33,344.49,1047.22,352.77,1033.74,357.77z"/>
					</g>
					<g>
						<path class="st15" d="M1039.45,262.82c10.59,26.08-0.34,46.33-20.63,54.57c-20.29,8.24-42.25,1.35-52.84-24.73
							c-10.59-26.08-5.8-61.47,14.49-69.71C1000.75,214.71,1028.85,236.74,1039.45,262.82z"/>
					</g>
					<g>
						<path class="st16" d="M1021.08,262.4c-5.87,7.9-19.93,7.38-31.41-1.15c-11.48-8.53-16.03-21.85-10.17-29.75
							c5.87-7.9,19.93-7.38,31.41,1.15C1022.4,241.18,1026.95,254.5,1021.08,262.4z"/>
					</g>
				</g>
			</g>
			<g class="st2">
				<defs>
					<path id="SVGID_00000062906387388288242740000007133300461170344607_" d="M1060.84,288.7c16.85,45.37-2.26,79.33-36.65,92.11
						c-34.39,12.77-71.04-0.48-87.89-45.85c-16.85-45.37-7.52-105.67,26.87-118.44C997.56,203.74,1043.99,243.34,1060.84,288.7z"/>
				</defs>
				<clipPath id="SVGID_00000080198937234552588200000008275422698614033293_">
					<use xlink:href="#SVGID_00000062906387388288242740000007133300461170344607_"  style="overflow:visible;"/>
				</clipPath>
				<g style="clip-path:url(#SVGID_00000080198937234552588200000008275422698614033293_);">
					<g>
						<path class="st9" d="M1021.64,254.57c0,0-13.72-10.84-9.9-19.62c3.82-8.78,14.25-0.18,15.39,17.54
							c2.61-19.32,6.32-21.61,11.88-21.1c5.56,0.51,6.69,12.78-9.35,24.64c12.81-7.62,23.06-8.2,25.79-1.73
							c2.72,6.47-11.39,11.69-24.42,8.08c9.43,1.72,19.84,6.73,19.63,13.06c-0.21,6.33-12.8,8.41-22.67-7.91
							c4.05,11.67-1.23,23.51-6.98,21.84c-5.74-1.67-10.59-9.12-0.45-23.45c-4.41,7.65-17.76,15.87-21.14,9.04
							c-3.38-6.83,4.29-12.58,18.65-14.92c-15.89,0.22-22.44-3.67-19.99-10.98C1000.04,243.19,1009.14,243.04,1021.64,254.57z"/>
						<path class="st18" d="M1032.31,256.4c1.36,3.59-0.44,7.61-4.03,8.97c-3.59,1.36-7.61-0.44-8.97-4.03
							c-1.36-3.59,0.44-7.61,4.03-8.97C1026.93,251,1030.95,252.81,1032.31,256.4z"/>
					</g>
					<g>
						<path class="st9" d="M944.6,239.6c0,0-8.37-6.62-6.04-11.98c2.33-5.36,8.69-0.11,9.39,10.7c1.59-11.79,3.85-13.18,7.25-12.88
							c3.39,0.31,4.08,7.8-5.71,15.03c7.82-4.65,14.07-5.01,15.74-1.06c1.66,3.95-6.95,7.14-14.9,4.93
							c5.75,1.05,12.11,4.11,11.98,7.97c-0.13,3.86-7.81,5.13-13.83-4.83c2.47,7.12-0.75,14.35-4.26,13.33
							c-3.5-1.02-6.46-5.57-0.28-14.31c-2.69,4.67-10.84,9.68-12.9,5.51c-2.06-4.17,2.62-7.68,11.38-9.1
							c-9.7,0.13-13.69-2.24-12.2-6.7C931.41,232.66,936.97,232.57,944.6,239.6z"/>
						<path class="st18" d="M951.11,240.72c0.83,2.19-0.27,4.64-2.46,5.47c-2.19,0.83-4.64-0.27-5.47-2.46
							c-0.83-2.19,0.27-4.64,2.46-5.47C947.82,237.42,950.27,238.53,951.11,240.72z"/>
					</g>
					<g>
						<path class="st9" d="M1010.97,379.01c0,0-8.37-6.62-6.04-11.98c2.33-5.36,8.69-0.11,9.39,10.7
							c1.59-11.79,3.85-13.18,7.25-12.88c3.39,0.31,4.08,7.8-5.71,15.03c7.82-4.65,14.07-5.01,15.74-1.06
							c1.66,3.95-6.95,7.14-14.9,4.93c5.75,1.05,12.11,4.11,11.98,7.97c-0.13,3.86-7.81,5.13-13.83-4.83
							c2.47,7.12-0.75,14.35-4.26,13.33c-3.5-1.02-6.46-5.57-0.28-14.31c-2.69,4.67-10.84,9.68-12.9,5.51
							c-2.06-4.17,2.62-7.68,11.38-9.1c-9.7,0.13-13.69-2.24-12.2-6.7C997.79,372.07,1003.35,371.98,1010.97,379.01z"/>
						<path class="st18" d="M1017.48,380.13c0.83,2.19-0.27,4.64-2.46,5.47c-2.19,0.83-4.64-0.27-5.47-2.46
							c-0.83-2.19,0.27-4.64,2.46-5.47C1014.2,376.84,1016.65,377.94,1017.48,380.13z"/>
					</g>
					<g>
						<path class="st9" d="M1034.78,316.63c0,0-11.03-8.71-7.96-15.77c3.07-7.06,11.45-0.14,12.37,14.09
							c2.09-15.53,5.08-17.37,9.55-16.96c4.47,0.41,5.38,10.27-7.52,19.8c10.3-6.12,18.54-6.59,20.72-1.39
							c2.19,5.2-9.16,9.4-19.63,6.49c7.58,1.39,15.94,5.41,15.78,10.5c-0.17,5.09-10.29,6.76-18.22-6.36
							c3.25,9.38-0.99,18.9-5.61,17.55c-4.62-1.35-8.51-7.33-0.36-18.85c-3.55,6.15-14.27,12.75-16.99,7.26
							c-2.72-5.49,3.45-10.11,14.99-11.99c-12.77,0.17-18.04-2.95-16.06-8.83C1017.41,307.49,1024.73,307.37,1034.78,316.63z"/>
						<path class="st18" d="M1043.35,318.1c1.1,2.89-0.35,6.11-3.24,7.21c-2.89,1.1-6.11-0.35-7.21-3.24
							c-1.1-2.89,0.35-6.11,3.24-7.21C1039.02,313.77,1042.25,315.22,1043.35,318.1z"/>
					</g>
					<g>
						<path class="st9" d="M944.56,332.58c0,0-19.03-15.04-13.74-27.21c5.29-12.18,19.75-0.25,21.35,24.32
							c3.61-26.79,8.76-29.96,16.47-29.26c7.71,0.7,9.28,17.72-12.97,34.16c17.77-10.57,31.98-11.37,35.76-2.4
							c3.77,8.97-15.8,16.22-33.87,11.2c13.07,2.39,27.51,9.33,27.22,18.12c-0.29,8.78-17.75,11.66-31.43-10.97
							c5.61,16.18-1.71,32.61-9.67,30.29c-7.96-2.32-14.68-12.65-0.63-32.52c-6.12,10.6-24.63,22-29.32,12.53
							c-4.69-9.47,5.94-17.44,25.86-20.69c-22.03,0.3-31.12-5.08-27.72-15.23C914.59,316.8,927.22,316.6,944.56,332.58z"/>
						<path class="st18" d="M959.35,335.12c1.89,4.98-0.61,10.55-5.59,12.44c-4.98,1.89-10.55-0.61-12.44-5.59
							c-1.89-4.98,0.61-10.55,5.59-12.44C951.89,327.64,957.46,330.14,959.35,335.12z"/>
					</g>
				</g>
			</g>
		</g>
	</g>
	<g>
		<g class="st0">
			<path class="st19" d="M1161.7,924.65c-1.42-3.56-4.6-5.88-8.14-6.37c-1.77-3.11-5.1-5.2-8.93-5.2l0,0
				c-2.43,0-4.66,0.85-6.42,2.26c-2.25,0.19-4.45,1.1-6.22,2.78l0,0c-2.78,2.63-3.76,6.45-2.91,9.92
				c-2.23,2.79-2.94,6.67-1.53,10.22l0,0c1.42,3.56,4.6,5.88,8.14,6.37c1.77,3.1,5.1,5.2,8.93,5.2l0,0c2.43,0,4.66-0.85,6.42-2.26
				c2.25-0.19,4.45-1.1,6.22-2.78h0c2.78-2.63,3.76-6.45,2.91-9.92C1162.41,932.08,1163.12,928.21,1161.7,924.65z"/>
			<path class="st20" d="M1151.34,931.45c0,3.71-3,6.71-6.71,6.71s-6.71-3-6.71-6.71c0-3.71,3-6.71,6.71-6.71
				S1151.34,927.75,1151.34,931.45z"/>
		</g>
		<g>
			<g class="st0">
				<path class="st21" d="M678.2,278.85c-1.7-4.27-5.52-7.05-9.77-7.65c-2.12-3.72-6.12-6.24-10.72-6.24l0,0
					c-2.92,0-5.59,1.02-7.7,2.71c-2.7,0.22-5.34,1.32-7.46,3.33l0,0c-3.34,3.16-4.51,7.74-3.49,11.9c-2.67,3.35-3.53,8-1.83,12.27
					l0,0c1.7,4.27,5.52,7.05,9.76,7.65c2.12,3.72,6.12,6.24,10.72,6.24l0,0c2.92,0,5.59-1.02,7.7-2.71c2.7-0.22,5.34-1.32,7.46-3.33
					l0,0c3.34-3.16,4.51-7.74,3.49-11.9C679.04,287.76,679.9,283.11,678.2,278.85z"/>
				<path class="st1" d="M665.77,287.01c0,4.45-3.6,8.05-8.05,8.05c-4.45,0-8.05-3.6-8.05-8.05c0-4.45,3.6-8.05,8.05-8.05
					C662.16,278.96,665.77,282.56,665.77,287.01z"/>
			</g>
			<g class="st0">
				<path class="st19" d="M1824.36,500.7c-1.42-3.56-4.6-5.88-8.14-6.37c-1.77-3.11-5.1-5.2-8.93-5.2l0,0
					c-2.43,0-4.66,0.85-6.42,2.26c-2.25,0.19-4.45,1.1-6.22,2.78l0,0c-2.78,2.63-3.76,6.45-2.91,9.92
					c-2.23,2.79-2.94,6.67-1.53,10.22l0,0c1.42,3.56,4.6,5.88,8.14,6.37c1.77,3.1,5.1,5.2,8.93,5.2l0,0c2.43,0,4.66-0.85,6.42-2.26
					c2.25-0.19,4.45-1.1,6.22-2.78h0c2.78-2.63,3.76-6.45,2.91-9.92C1825.07,508.13,1825.78,504.26,1824.36,500.7z"/>
				<path class="st20" d="M1814,507.51c0,3.71-3,6.71-6.71,6.71c-3.71,0-6.71-3-6.71-6.71c0-3.71,3-6.71,6.71-6.71
					C1811,500.8,1814,503.8,1814,507.51z"/>
			</g>
			<g>
				<path class="st22" d="M1383.34,966.19c17.06,0,29.01-21.85,9.4-39.09h-17.87l5.99-5.99c7.63-7.63,7.63-20.01,0-27.64l0,0
					c-7.63-7.63-20.01-7.63-27.64,0l-5.99,5.99v-17.87c0,0,0,0,0,0c-17.24-19.62-39.09-7.66-39.09,9.4v8.47l-5.99-5.99
					c-7.63-7.63-20.01-7.63-27.64,0l0,0c-7.63,7.63-7.63,20.01,0,27.64l5.99,5.99h-17.87c-19.61,17.24-7.66,39.09,9.4,39.09h8.48
					l-12.64,12.64c-1.68,26.06,22.22,33.06,34.28,21l5.99-5.99v17.87c17.24,19.61,39.09,7.66,39.09-9.4v-8.47l5.99,5.99
					c7.63,7.63,20.01,7.63,27.64,0l0,0c7.63-7.63,7.63-20.01,0-27.64l-5.99-5.99H1383.34z"/>
				<path class="st23" d="M1349.77,946.65c0,12.2-9.89,22.09-22.09,22.09c-12.2,0-22.09-9.89-22.09-22.09
					c0-12.2,9.89-22.09,22.09-22.09C1339.88,924.55,1349.77,934.45,1349.77,946.65z"/>
			</g>
			<g class="st0">
				<path class="st24" d="M678.98,818.73c0-7.84-6.35-14.19-14.19-14.19h-6.15l4.35-4.35c5.54-5.54,5.54-14.53,0-20.07l0,0
					c-5.54-5.54-14.53-5.54-20.07,0l-4.35,4.35v-6.15c0-7.84-6.35-14.19-14.19-14.19c-7.84,0-14.19,6.35-14.19,14.19v6.15
					l-4.35-4.35c-5.54-5.54-14.53-5.54-20.07,0l0,0c-5.54,5.54-5.54,14.53,0,20.07l4.35,4.35h-6.15c-7.84,0-14.19,6.35-14.19,14.19
					c0,7.84,6.35,14.19,14.19,14.19h6.15l-4.35,4.35c-5.54,5.54-5.54,14.53,0,20.07c5.54,5.54,14.53,5.54,20.07,0l4.35-4.35v6.15
					c0,7.84,6.35,14.19,14.19,14.19c7.84,0,14.19-6.35,14.19-14.19v-6.15l4.35,4.35c5.54,5.54,14.53,5.54,20.07,0l0,0
					c5.54-5.54,5.54-14.53,0-20.07l-4.35-4.35h6.15C672.63,832.92,678.98,826.57,678.98,818.73z"/>
				<path class="st1" d="M640.42,818.73c0,8.86-7.18,16.04-16.04,16.04c-8.86,0-16.04-7.18-16.04-16.04
					c0-8.86,7.18-16.04,16.04-16.04C633.24,802.69,640.42,809.87,640.42,818.73z"/>
			</g>
		</g>
	</g>
	<g class="st0">
		<path class="st24" d="M1068.97,585.5c-0.28-44.32,17.77-86.69,48.05-119.06c41.11-43.95,120.27-110.44,216.34-100.84
			c141.9,14.19,166.02,164.6,248.32,144.74c82.3-19.87,150.41-12.77,192.98,95.07c42.57,107.84-29.8,183.05-214.27,222.78
			C1397.33,863.31,1070.19,779.8,1068.97,585.5z"/>
		<g class="st2">
			<g>
				<path class="st25" d="M1807.08,752.74c-24.09-4.91-45.85-50.05-66.64-32.44c-20.79,17.62-82.44,20.43-74.86-50.17
					c0.24-2.25,0.37-4.5,0.39-6.74l-92.57,84.08c18.25,11.1,44.76,25.66,73.3,36.15c52.43,19.27,77.69-18.96,115.76,0.71
					C1800.55,804.01,1831.16,757.65,1807.08,752.74z"/>
				<path class="st26" d="M1799.27,765.13c6.73-2.68,6.98-8.83,4.11-13.47c-13.74-5.06-26.74-21.68-39.25-30.24
					c-0.9,0.21-1.86,0.68-2.83,1.62c-4.03,3.91-8.06,11.45,6.83,25.45C1783.03,762.49,1791.38,768.28,1799.27,765.13z"/>
				<path class="st25" d="M1283.48,607.51c-104.96-29.56-147.44-74.39-180.47-69.2c-33.03,5.19-18.64,25.92,8.77,41.53
					c27.41,15.61,58.69,45.06,70.14,51.66C1193.36,638.11,1313.09,615.85,1283.48,607.51z"/>
				<path class="st9" d="M1652.96,634.19c0,0,7.55-35.01-10.17-65.83c-17.72-30.82,48.62-33.49,69.15,25.17
					c20.53,58.66-31.95,79.56-41.99,74.06C1659.9,662.09,1652.96,634.19,1652.96,634.19z"/>
				<path class="st9" d="M1372.18,553.65c0,0,32.14,39.68,147.51,23.32c115.37-16.36,189.88,78.87,161.27,143.86
					c-28.6,64.99,31,80.98,56.15,70.49c25.15-10.5,32.22,39.12,53.69,51.09c21.47,11.97-21.75,46.89-52.08,16.6
					c-30.33-30.28-65.98-1.49-110.11-35.73c-44.13-34.24-77.62-79.54-77.62-79.54c-75.2,19.1-163.58,12.84-230.98-18.94
					c-67.4-31.79-166.44-74.3-215.1-72.49c-48.66,1.81-55.42-32.5-22.09-44.52c33.33-12.02,96.25-4.76,145.6,9.39
					C1277.76,631.33,1372.18,553.65,1372.18,553.65z"/>
				<path class="st25" d="M1078.12,648.59c0,0-2.79-5.59,3.76-11.84c6.55-6.25,23.11-2.12,23.11-2.12
					c-9.83-4.38-22.01-6.35-28.04-0.61C1070.93,639.75,1074.97,647.49,1078.12,648.59z"/>
				<path class="st25" d="M1064.64,638.35c0,0-0.63-10.22,9-14.74c9.64-4.51,19.48,0.36,19.48,0.36s-11.07-7.53-22.01-4.28
					C1060.17,622.94,1062.47,635.48,1064.64,638.35z"/>
				<path class="st27" d="M1759.3,799.49c-8.41-3.22-13.58,7.66-5.6,24.88c7.98,17.21,15.52,28.39,25.74,27.22
					c7.71-0.88,11.35-4.55,11.36-9.18c0,0,0,0,0,0C1777.29,834.88,1769.48,812.48,1759.3,799.49z"/>
				<path class="st25" d="M1583.06,639.61c0,0-51.07,27.57-32.08,104.12C1528.85,732.13,1528.14,653.58,1583.06,639.61z"/>
			</g>
			<g>
				<g>
					<path class="st9" d="M1406.92,540.06c-17.15,57.3-86.11,87.28-154.03,66.95c-67.92-20.33-109.08-83.26-91.93-140.56
						c17.15-57.3,86.11-87.27,154.03-66.95C1382.91,419.83,1424.07,482.76,1406.92,540.06"/>
					<path class="st28" d="M1258.27,589.05c-64.33-19.25-104.61-76.73-94.13-131.43c-1.19,2.87-2.27,5.8-3.17,8.83
						c-17.15,57.3,24.01,120.23,91.93,140.56c67.92,20.33,136.88-9.65,154.03-66.95c0.91-3.03,1.61-6.07,2.2-9.12
						C1387.83,582.41,1322.6,608.3,1258.27,589.05"/>
				</g>
				<g>
					<path class="st29" d="M1252.94,551.02c0,0-6.39,16.55,7.33,23.89c13.72,7.33,23.18-14.43,23.18-14.43s-10.76-14.66-11.29-18.3
						C1271.63,538.54,1261.84,553.39,1252.94,551.02z"/>
					<g>
						<path class="st30" d="M1278.2,520.34c-7.69-2.54-18.63-2.71-18.12,3.43c0.83,6.45,7.04,16.14,11.83,17.58
							s15.3-3.25,19.55-8.19C1295.26,528.31,1286.03,522.44,1278.2,520.34"/>
						<path class="st9" d="M1275.87,525.15c0.08,1.26-2.22,2.13-5.12,1.94c-2.91-0.2-5.33-1.38-5.4-2.64
							c-0.08-1.27,2.21-2.13,5.12-1.94C1273.38,522.7,1275.79,523.89,1275.87,525.15"/>
						<path class="st30" d="M1246.29,551.91c-12.38-3.71-19.44-16.79-15.74-29.18c0.3-1.01,1.37-1.59,2.39-1.29
							c1.02,0.3,1.59,1.37,1.29,2.39c-3.1,10.35,2.8,21.3,13.16,24.4c10.35,3.1,21.3-2.81,24.4-13.16c0.3-1.01,1.37-1.59,2.39-1.29
							c1.02,0.3,1.59,1.38,1.29,2.39C1271.76,548.56,1258.67,555.61,1246.29,551.91"/>
						<path class="st30" d="M1287.52,564.25c-12.38-3.71-19.44-16.79-15.74-29.18c0.3-1.01,1.37-1.59,2.39-1.29
							c1.01,0.3,1.59,1.37,1.29,2.39c-3.1,10.35,2.8,21.3,13.16,24.4c10.35,3.1,21.3-2.81,24.4-13.16c0.3-1.01,1.37-1.59,2.39-1.29
							c1.02,0.3,1.59,1.38,1.29,2.39C1312.99,560.9,1299.91,567.95,1287.52,564.25"/>
						<path class="st30" d="M1239.38,521.64c0.21,1.39-2.61,2.95-6.29,3.49c-3.68,0.54-6.82-0.15-7.02-1.54
							c-0.2-1.39,2.61-2.95,6.29-3.49C1236.03,519.57,1239.17,520.26,1239.38,521.64"/>
						<path class="st30" d="M1309.93,542.76c-0.93,1.05,0.56,3.9,3.34,6.37c2.77,2.47,5.78,3.62,6.71,2.57
							c0.93-1.05-0.56-3.9-3.33-6.37C1313.87,542.86,1310.86,541.71,1309.93,542.76"/>
					</g>
					<g>
						<path class="st29" d="M1214.12,513.89c-1.54,5.15-8.89,7.5-16.41,5.25c-7.52-2.25-12.37-8.25-10.82-13.4
							c1.54-5.16,8.89-7.51,16.41-5.26C1210.82,502.74,1215.67,508.74,1214.12,513.89"/>
						<path class="st29" d="M1369.63,560.43c-1.54,5.15-8.89,7.5-16.41,5.25c-7.52-2.25-12.37-8.25-10.82-13.4
							c1.54-5.16,8.89-7.51,16.41-5.26C1366.33,549.28,1371.17,555.27,1369.63,560.43"/>
					</g>
					<g>
						<g>
							<path class="st30" d="M1338.24,509.23c7.87,2.35,12.87,9.67,12.65,17.51c0.8-1.3,1.46-2.71,1.92-4.24
								c2.81-9.4-2.52-19.3-11.92-22.12c-9.4-2.81-19.3,2.53-22.12,11.93c-0.46,1.53-0.68,3.08-0.72,4.6
								C1322.17,510.25,1330.37,506.88,1338.24,509.23"/>
						</g>
						<g>
							<path class="st30" d="M1235.3,478.42c-7.87-2.35-16.07,1.02-20.19,7.68c0.04-1.53,0.26-3.07,0.72-4.6
								c2.81-9.4,12.72-14.74,22.12-11.93c9.4,2.81,14.74,12.72,11.92,22.12c-0.46,1.53-1.12,2.94-1.92,4.24
								C1248.16,488.1,1243.16,480.78,1235.3,478.42"/>
						</g>
					</g>
				</g>
				<g>
					<path class="st9" d="M1300.84,413.52c0,0,8.76-155.88-17.75-185.35c-27.3-29.58-48.84,44.45-45.72,97.26
						c3.12,52.8,35.13,100.27,35.13,100.27L1300.84,413.52z"/>
				</g>
				<g>
					<path class="st31" d="M1275.13,397.97c0,0,9.33-34.66,4.52-83.93c-4.8-49.27-7.68-72.6-21.48-68.55
						c-13.8,4.05-13.7,76.38-8.5,105.82c5.21,29.45,13.69,42.49,19.12,49.38C1274.21,407.58,1275.13,397.97,1275.13,397.97z"/>
				</g>
				<g>
					<path class="st9" d="M1325.47,421.55c0,0,117.15-103.2,156.71-100.57c40.13,3.19-4.78,65.87-48.22,96.04
						c-43.45,30.17-100.54,34.33-100.54,34.33L1325.47,421.55z"/>
				</g>
				<g>
					<path class="st31" d="M1353.58,432.16c0,0,21.49-28.75,63.2-55.41c41.71-26.67,61.83-38.82,67.17-25.47
						c5.34,13.36-51.58,57.97-77.96,72.07c-26.37,14.1-41.87,15.49-50.63,15.48C1346.6,438.82,1353.58,432.16,1353.58,432.16z"/>
				</g>
			</g>
		</g>
	</g>
	<rect x="0.04" y="0.12" class="st32" width="1920.75" height="167.55"/>
	<g class="st0">
		<path class="st33" d="M187.93,998.79h-35.06c-3.2,0-5.79-2.59-5.79-5.79v-35.06c0-3.2,2.59-5.79,5.79-5.79h17.16h17.89
			c3.2,0,5.79,2.59,5.79,5.79V993C193.72,996.2,191.13,998.79,187.93,998.79z"/>
		<path class="st33" d="M259.04,998.79h-35.06c-3.2,0-5.79-2.59-5.79-5.79v-35.06c0-3.2,2.59-5.79,5.79-5.79h17.53h17.53
			c3.2,0,5.79,2.59,5.79,5.79V993C264.83,996.2,262.24,998.79,259.04,998.79z"/>
		<path class="st33" d="M331.84,998.79h-35.06c-3.2,0-5.79-2.59-5.79-5.79v-35.06c0-3.2,2.59-5.79,5.79-5.79h19.25h15.81
			c3.2,0,5.79,2.59,5.79,5.79V993C337.63,996.2,335.04,998.79,331.84,998.79z"/>
		<g class="st2">
			<g>
				<path class="st34" d="M325.07,990.86h-21.53c-2.77,0-5.02-2.25-5.02-5.02v-21.53c0-2.77,2.25-5.02,5.02-5.02h21.53
					c2.77,0,5.02,2.25,5.02,5.02v21.53C330.09,988.61,327.84,990.86,325.07,990.86z M303.54,962.22c-1.15,0-2.09,0.94-2.09,2.1
					v21.53c0,1.16,0.94,2.1,2.09,2.1h21.53c1.16,0,2.1-0.94,2.1-2.1v-21.53c0-1.16-0.94-2.1-2.1-2.1H303.54z"/>
			</g>
		</g>
		<path class="st35" d="M175.29,963.97h4.95v-5.56h-7.74c-3.74,0-6.78,2.92-7,6.6h-0.02v7.55h-6.79v5.7h6.79v14.27h6.2v-14.27h7.56
			v-5.7h-7.56v-5.02C171.7,965.56,173.32,963.97,175.29,963.97z"/>
		<path class="st35" d="M256.9,967.71c-0.54,0.33-1.16,0.54-1.77,0.7c0.92-1.32,1.18-2.96,1.18-2.96c-0.7,0.7-1.64,1.2-2.46,1.55
			c-1.2-2.07-3.43-3.47-6-3.47c-3.83,0-6.94,3.11-6.94,6.94c0,0.83,0.15,1.62,0.42,2.35c-3.05-1.04-10.08-3.79-13.3-7.91
			c0,0-0.29,5.17,1.67,7.38l-3.09-0.83c0,0,1.08,4.26,3.42,4.92l-1.59,0.33c0,0,1.93,2.68,4.99,3.43c-5.47,3.57-8.62,4.17-8.62,4.17
			s26.58,12.24,29.69-11.88l0,0c0.18-0.61,0.28-1.26,0.28-1.92C256.15,969.44,256.9,967.71,256.9,967.71z"/>
		<g class="st2">
			<g>
				<path class="st34" d="M314.31,983.23c-4.26,0-7.73-3.47-7.73-7.73c0-4.26,3.47-7.73,7.73-7.73s7.73,3.47,7.73,7.73
					C322.04,979.76,318.57,983.23,314.31,983.23z M314.31,969.23c-3.46,0-6.27,2.81-6.27,6.27c0,3.46,2.81,6.27,6.27,6.27
					c3.46,0,6.27-2.81,6.27-6.27C320.58,972.04,317.76,969.23,314.31,969.23z"/>
			</g>
		</g>
		<g class="st2">
			<g>
				<path class="st34" d="M322.35,967.64c-1.26,0-2.29-1.03-2.29-2.28c0-1.26,1.03-2.29,2.29-2.29c1.26,0,2.29,1.03,2.29,2.29
					C324.64,966.61,323.61,967.64,322.35,967.64z M322.35,964.16c-0.66,0-1.19,0.53-1.19,1.19c0,0.66,0.53,1.19,1.19,1.19
					c0.66,0,1.19-0.53,1.19-1.19C323.54,964.7,323.01,964.16,322.35,964.16z"/>
			</g>
		</g>
	</g>
</g>
<g id="TEXTS" class="st0">
	<text transform="matrix(1 0 0 1 129.4526 381.0586)" class="st35 st36 st37">HAPPY</text>
	<text transform="matrix(1 0 0 1 121.7768 523.3496)" class="st35 st36 st38">EASTER DAY</text>
	<g class="st2">
		<text transform="matrix(1 0 0 1 1065.6406 95.293)" class="st9 st39 st40">HOME</text>
	</g>
	<g class="st2">
		<text transform="matrix(1 0 0 1 1269.9727 95.293)" class="st9 st39 st40">SERVICE</text>
	</g>
	<g class="st2">
		<text transform="matrix(1 0 0 1 1493.4609 95.293)" class="st9 st39 st40">ABOUT</text>
	</g>
	<g class="st2">
		<text transform="matrix(1 0 0 1 1675.7988 95.293)" class="st9 st39 st40">CONTACT</text>
	</g>
	<text transform="matrix(1 0 0 1 126.9115 599.1953)" class="st41 st42 st43">Lorem ipsum dolor sit amet</text>
	<g class="st2">
		<text transform="matrix(1 0 0 1 362.918 991.9141)" class="st34 st42 st44">@Loremipsum</text>
	</g>
	<rect x="131.34" y="627.2" class="st45" width="643.52" height="165.4"/>
	<text transform="matrix(1 0 0 1 131.3373 646.5195)" class="st2"><tspan x="0" y="0" class="st46 st39 st47">Lorem ipsum dolor sit amet, consectetuer adipiscing elit, </tspan><tspan x="0" y="32.66" class="st46 st39 st47">sed diam nonummy nibh euismod tincidunt ut laoreet </tspan><tspan x="0" y="65.33" class="st46 st39 st47">dolore magna aliquam erat volutpat. </tspan></text>
	<path class="st41" d="M333.7,807.09H155.82c-15.99,0-28.96-12.97-28.96-28.96v0c0-15.99,12.97-28.96,28.96-28.96H333.7
		c15.99,0,28.96,12.97,28.96,28.96v0C362.66,794.12,349.7,807.09,333.7,807.09z"/>
	<text transform="matrix(1 0 0 1 170.7084 791.082)" class="st33 st39 st48">Read More</text>
	<g class="st2">
		<text transform="matrix(1 0 0 1 130.7734 120.834)" class="st10 st36 st49">LOGO</text>
	</g>
</g>
</svg>
